<svg width="308" height="412" viewBox="0 0 308 412" fill="none" xmlns="http://www.w3.org/2000/svg">
<g clip-path="url(#clip0_1_1072)">
<g filter="url(#filter0_b_1_1072)">
<path d="M185.355 402.663L300.748 305.095C303.445 302.815 305 299.463 305 295.932V112.209C305 108.597 303.373 105.177 300.57 102.898L185.307 9.18893C183.168 7.44955 180.495 6.5 177.737 6.5H19C12.3726 6.5 7 11.8726 7 18.5V393.5C7 400.127 12.3726 405.5 19 405.5H177.607C180.444 405.5 183.189 404.495 185.355 402.663Z" fill="url(#paint0_linear_1_1072)" fill-opacity="0.77"/>
<path d="M185.355 402.663L300.748 305.095C303.445 302.815 305 299.463 305 295.932V112.209C305 108.597 303.373 105.177 300.57 102.898L185.307 9.18893C183.168 7.44955 180.495 6.5 177.737 6.5H19C12.3726 6.5 7 11.8726 7 18.5V393.5C7 400.127 12.3726 405.5 19 405.5H177.607C180.444 405.5 183.189 404.495 185.355 402.663Z" fill="black" fill-opacity="0.2"/>
<path d="M185.355 402.663L300.748 305.095C303.445 302.815 305 299.463 305 295.932V112.209C305 108.597 303.373 105.177 300.57 102.898L185.307 9.18893C183.168 7.44955 180.495 6.5 177.737 6.5H19C12.3726 6.5 7 11.8726 7 18.5V393.5C7 400.127 12.3726 405.5 19 405.5H177.607C180.444 405.5 183.189 404.495 185.355 402.663Z" stroke="url(#paint1_linear_1_1072)" stroke-width="2.5"/>
</g>
</g>
<path d="M7 88V324L0 315.5V97L7 88Z" fill="#F00AFE"/>
<path d="M308 5V72C308 75.3207 304.093 77.0999 301.588 74.9199L225.579 8.77171C222.092 5.7365 224.238 0 228.862 0H303C305.761 0 308 2.23857 308 5Z" fill="url(#paint2_linear_1_1072)"/>
<g filter="url(#filter1_b_1_1072)">
<path d="M304.5 9V76C304.5 79.3207 300.593 81.0999 298.088 78.9199L222.079 12.7717C218.592 9.7365 220.738 4 225.362 4H299.5C302.261 4 304.5 6.23857 304.5 9Z" fill="#6E0076"/>
</g>
<g clip-path="url(#clip1_1_1072)">
<g clip-path="url(#clip2_1_1072)">
<path opacity="0.44" d="M-43.9208 242.235C-14.2355 136.128 99.1485 50.1118 209.329 50.1118C319.51 50.1118 384.765 136.128 355.079 242.235C325.394 348.341 212.01 434.357 101.829 434.357C-8.35176 434.357 -73.6063 348.341 -43.9208 242.235Z" stroke="url(#paint3_linear_1_1072)"/>
<path opacity="0.3" d="M365.379 242.235C396.597 130.65 327.974 40.1926 212.104 40.1926C96.235 40.1926 -23.0029 130.65 -54.2209 242.235C-85.4388 353.819 -16.8154 444.276 99.054 444.276C214.923 444.276 334.161 353.819 365.379 242.235Z" stroke="url(#paint4_linear_1_1072)" stroke-width="0.4"/>
<path opacity="0.9" d="M255.079 242.234C269.885 189.314 237.339 146.414 182.387 146.414C127.435 146.414 70.8846 189.314 56.0792 242.234C41.2737 295.155 73.8191 338.055 128.771 338.055C183.724 338.055 240.274 295.155 255.079 242.234Z" stroke="#FF8AED"/>
<path opacity="0.2" d="M265.079 242.235C281.373 183.996 245.556 136.784 185.081 136.784C124.606 136.784 62.3726 183.996 46.0791 242.235C29.7857 300.473 65.602 347.685 126.077 347.685C186.552 347.685 248.786 300.473 265.079 242.235Z" stroke="#FF8AED"/>
<path d="M164.342 194.621L169.682 190.569L169.786 190.705L170.052 190.504L170.204 190.705L170.384 190.569L173.458 194.621L173.279 194.758L173.791 195.433L173.971 195.297L177.045 199.349L176.865 199.485L177.377 200.16L177.557 200.024L180.632 204.077L180.452 204.213L180.964 204.888L181.144 204.752L184.218 208.804L184.038 208.94L184.551 209.615L184.73 209.479L187.804 213.532L187.624 213.667L188.137 214.343L188.316 214.207L191.391 218.259L191.211 218.395L191.724 219.071L191.903 218.934L194.977 222.987L194.798 223.122L195.31 223.798L195.489 223.662L198.564 227.714L198.385 227.85L198.896 228.526L199.076 228.389L202.15 232.442L201.971 232.578L202.483 233.253L202.662 233.117L205.736 237.169L205.557 237.306L206.069 237.981L206.249 237.845L209.323 241.897L209.143 242.033L209.296 242.235L209.031 242.436L209.134 242.573L203.793 246.624L203.689 246.488L202.799 247.163L202.902 247.3L197.56 251.352L197.458 251.216L196.568 251.891L196.67 252.028L191.329 256.08L191.226 255.943L190.336 256.618L190.439 256.755L185.097 260.807L184.994 260.671L184.104 261.347L184.207 261.482L178.865 265.535L178.763 265.398L177.872 266.074L177.976 266.21L172.634 270.262L172.531 270.126L171.64 270.802L171.744 270.937L166.402 274.99L166.299 274.854L165.408 275.529L165.512 275.665L160.171 279.717L160.068 279.581L159.177 280.257L159.281 280.392L153.939 284.445L153.835 284.309L152.945 284.984L153.049 285.12L147.707 289.172L147.603 289.036L146.714 289.711L146.816 289.848L141.476 293.9L141.372 293.764L141.106 293.965L140.954 293.764L140.774 293.9L137.7 289.848L137.88 289.711L137.367 289.036L137.187 289.172L134.113 285.12L134.293 284.984L133.781 284.309L133.601 284.445L130.527 280.392L130.707 280.257L130.195 279.581L130.015 279.717L126.94 275.665L127.12 275.529L126.607 274.854L126.428 274.99L123.354 270.937L123.534 270.802L123.021 270.126L122.842 270.262L119.768 266.21L119.948 266.074L119.435 265.398L119.255 265.535L116.181 261.482L116.36 261.347L115.848 260.671L115.669 260.807L112.595 256.755L112.774 256.619L112.262 255.943L112.083 256.08L109.008 252.028L109.188 251.891L108.675 251.216L108.496 251.352L105.422 247.3L105.601 247.163L105.089 246.488L104.909 246.624L101.836 242.573L102.015 242.436L101.862 242.235L102.127 242.033L102.025 241.897L107.365 237.845L107.469 237.981L108.359 237.306L108.256 237.169L113.598 233.117L113.701 233.253L114.591 232.578L114.488 232.442L119.83 228.389L119.932 228.526L120.822 227.851L120.72 227.714L126.061 223.662L126.164 223.798L127.054 223.122L126.951 222.987L132.293 218.934L132.396 219.071L133.287 218.395L133.183 218.259L138.524 214.207L138.627 214.343L139.518 213.667L139.414 213.532L144.756 209.479L144.859 209.615L145.75 208.94L145.646 208.804L150.988 204.752L151.091 204.888L151.982 204.213L151.878 204.077L157.219 200.024L157.323 200.16L158.213 199.485L158.109 199.349L163.451 195.297L163.555 195.433L164.445 194.758L164.342 194.621Z" fill="url(#paint5_linear_1_1072)" stroke="#FF8AED" stroke-width="0.4" stroke-dasharray="1 6"/>
<path d="M169.628 190.232C169.702 189.966 169.987 189.75 170.263 189.75C170.539 189.75 170.702 189.966 170.628 190.232C170.554 190.497 170.269 190.713 169.993 190.713C169.717 190.713 169.554 190.497 169.628 190.232Z" fill="#FF8AED"/>
<path d="M101.444 242.716C101.168 242.716 101.005 242.501 101.079 242.235C101.154 241.969 101.438 241.753 101.714 241.753C101.99 241.753 102.154 241.969 102.079 242.235C102.005 242.501 101.72 242.716 101.444 242.716Z" fill="#FF8AED"/>
<path d="M140.53 294.238C140.605 293.972 140.889 293.756 141.165 293.756C141.441 293.756 141.605 293.972 141.53 294.238C141.456 294.504 141.172 294.719 140.896 294.719C140.62 294.719 140.456 294.504 140.53 294.238Z" fill="#FF8AED"/>
<path d="M209.444 242.716C209.168 242.716 209.005 242.501 209.079 242.235C209.153 241.969 209.438 241.753 209.714 241.753C209.99 241.753 210.153 241.969 210.079 242.235C210.005 242.501 209.72 242.716 209.444 242.716Z" fill="#FF8AED"/>
<path d="M203.57 54.1015L209.011 49.9741L209.114 50.1104L209.388 49.9026L209.546 50.1104L209.725 49.9742L212.856 54.1015L212.677 54.2377L213.198 54.9256L213.378 54.7893L216.509 58.9166L216.33 59.0528L216.851 59.7407L217.03 59.6045L220.162 63.7317L219.983 63.8679L220.504 64.5558L220.683 64.4196L223.815 68.5469L223.636 68.6831L224.157 69.3708L224.336 69.2347L227.468 73.3619L227.288 73.4982L227.81 74.186L227.989 74.0498L231.12 78.177L230.941 78.3133L231.463 79.0011L231.642 78.8649L234.773 82.9921L234.594 83.1284L235.116 83.8162L235.295 83.68L238.426 87.8072L238.247 87.9435L238.769 88.6313L238.948 88.4951L242.079 92.6223L241.9 92.7585L242.422 93.4464L242.601 93.3102L245.732 97.4374L245.552 97.5736L246.074 98.2615L246.254 98.1253L249.385 102.253L249.205 102.389L249.727 103.077L249.906 102.94L253.038 107.068L252.858 107.204L253.38 107.892L253.559 107.756L256.691 111.883L256.511 112.019L257.033 112.707L257.212 112.571L260.343 116.698L260.163 116.834L260.686 117.522L260.865 117.386L263.996 121.513L263.816 121.649L264.339 122.337L264.518 122.201L267.649 126.328L267.469 126.464L267.992 127.152L268.171 127.016L271.302 131.143L271.122 131.279L271.645 131.967L271.824 131.831L274.955 135.958L274.775 136.094L275.297 136.783L275.477 136.646L278.608 140.774L278.428 140.909L278.95 141.598L279.129 141.461L282.261 145.589L282.081 145.724L282.603 146.413L282.782 146.276L285.914 150.404L285.734 150.54L286.256 151.228L286.435 151.091L289.567 155.219L289.387 155.355L289.909 156.043L290.088 155.906L293.219 160.034L293.039 160.17L293.562 160.858L293.741 160.722L296.872 164.849L296.692 164.985L297.215 165.673L297.394 165.537L300.525 169.664L300.345 169.8L300.868 170.488L301.047 170.352L304.178 174.479L303.998 174.615L304.52 175.304L304.7 175.167L307.831 179.294L307.651 179.43L308.173 180.119L308.353 179.982L311.484 184.109L311.304 184.245L311.826 184.934L312.005 184.797L315.137 188.925L314.957 189.06L315.479 189.749L315.658 189.612L318.79 193.74L318.61 193.875L319.132 194.564L319.311 194.427L322.442 198.555L322.262 198.691L322.785 199.379L322.964 199.242L326.095 203.37L325.915 203.506L326.438 204.194L326.617 204.057L329.748 208.185L329.568 208.321L330.091 209.009L330.27 208.873L333.401 213L333.221 213.136L333.743 213.824L333.923 213.688L337.054 217.815L336.874 217.951L337.396 218.64L337.576 218.503L340.707 222.63L340.527 222.766L341.049 223.455L341.228 223.318L344.36 227.445L344.18 227.581L344.702 228.27L344.881 228.133L348.013 232.261L347.833 232.396L348.355 233.085L348.534 232.948L351.665 237.076L351.485 237.211L352.008 237.9L352.187 237.763L355.318 241.891L355.138 242.027L355.296 242.235L355.022 242.443L355.126 242.578L349.685 246.706L349.582 246.57L348.675 247.258L348.779 247.393L343.338 251.521L343.235 251.385L342.328 252.073L342.432 252.209L336.991 256.336L336.888 256.2L335.981 256.888L336.085 257.024L330.644 261.151L330.541 261.015L329.633 261.703L329.737 261.839L324.297 265.966L324.194 265.831L323.286 266.518L323.39 266.654L317.95 270.781L317.847 270.646L316.939 271.333L317.043 271.469L311.602 275.597L311.499 275.461L310.592 276.148L310.696 276.284L305.255 280.412L305.152 280.276L304.245 280.963L304.349 281.099L298.908 285.227L298.805 285.091L297.898 285.779L298.002 285.914L292.561 290.042L292.458 289.905L291.551 290.594L291.655 290.729L286.214 294.857L286.111 294.72L285.204 295.409L285.308 295.545L279.867 299.672L279.764 299.535L278.857 300.224L278.961 300.36L273.52 304.487L273.417 304.35L272.509 305.039L272.613 305.175L267.173 309.302L267.07 309.166L266.162 309.854L266.266 309.99L260.826 314.117L260.723 313.981L259.815 314.669L259.919 314.805L254.478 318.933L254.376 318.796L253.468 319.484L253.572 319.62L248.131 323.748L248.029 323.611L247.121 324.299L247.225 324.435L241.784 328.563L241.681 328.426L240.774 329.115L240.878 329.25L235.437 333.378L235.334 333.241L234.427 333.93L234.531 334.065L229.09 338.193L228.987 338.056L228.08 338.745L228.184 338.881L222.743 343.008L222.64 342.871L221.732 343.56L221.836 343.696L216.396 347.823L216.293 347.686L215.385 348.375L215.489 348.511L210.049 352.638L209.946 352.502L209.038 353.19L209.142 353.326L203.701 357.453L203.599 357.317L202.691 358.005L202.795 358.141L197.354 362.268L197.252 362.132L196.344 362.82L196.448 362.956L191.007 367.084L190.904 366.947L189.997 367.635L190.101 367.771L184.66 371.899L184.557 371.762L183.65 372.451L183.754 372.586L178.313 376.714L178.21 376.577L177.303 377.266L177.407 377.401L171.966 381.529L171.863 381.392L170.955 382.081L171.059 382.216L165.619 386.344L165.516 386.207L164.608 386.896L164.712 387.032L159.272 391.159L159.169 391.022L158.261 391.711L158.365 391.847L152.924 395.974L152.822 395.837L151.914 396.526L152.018 396.662L146.577 400.789L146.475 400.653L145.567 401.341L145.671 401.477L140.23 405.604L140.128 405.468L139.22 406.156L139.324 406.292L133.883 410.42L133.78 410.283L132.873 410.971L132.977 411.107L127.536 415.235L127.433 415.098L126.526 415.786L126.63 415.922L121.189 420.05L121.086 419.913L120.179 420.602L120.283 420.737L114.842 424.865L114.739 424.728L113.831 425.417L113.935 425.552L108.495 429.68L108.392 429.543L107.484 430.232L107.588 430.368L102.148 434.495L102.045 434.358L101.771 434.566L101.613 434.358L101.434 434.495L98.3023 430.368L98.4813 430.232L97.9599 429.543L97.7806 429.68L94.6494 425.552L94.8284 425.417L94.307 424.728L94.1278 424.865L90.9965 420.737L91.1755 420.602L90.6541 419.913L90.4749 420.05L87.3436 415.922L87.5226 415.786L87.0013 415.098L86.822 415.235L83.6907 411.107L83.8697 410.971L83.3484 410.283L83.1691 410.42L80.0379 406.292L80.2169 406.156L79.6955 405.468L79.5162 405.604L76.385 401.477L76.564 401.341L76.0426 400.653L75.8634 400.789L72.7321 396.662L72.9111 396.526L72.3897 395.837L72.2105 395.974L69.0792 391.847L69.2582 391.711L68.7369 391.022L68.5576 391.159L65.4263 387.032L65.6063 386.896L65.084 386.207L64.9047 386.344L61.7735 382.216L61.9535 382.081L61.4311 381.392L61.2518 381.529L58.1206 377.401L58.3006 377.266L57.7782 376.577L57.599 376.714L54.4677 372.586L54.6477 372.451L54.1253 371.762L53.9461 371.899L50.8148 367.771L50.9948 367.635L50.4725 366.947L50.2932 367.084L47.162 362.956L47.3419 362.82L46.8196 362.132L46.6403 362.268L43.5091 358.141L43.6891 358.005L43.1667 357.317L42.9875 357.453L39.8562 353.326L40.0362 353.19L39.5138 352.502L39.3346 352.638L36.2033 348.511L36.3833 348.375L35.8609 347.686L35.6817 347.823L32.5504 343.696L32.7304 343.56L32.2081 342.871L32.0288 343.008L28.8976 338.881L29.0776 338.745L28.5552 338.056L28.3759 338.193L25.2447 334.065L25.4247 333.93L24.9023 333.241L24.7231 333.378L21.5918 329.25L21.7718 329.115L21.2497 328.426L21.0701 328.563L17.939 324.435L18.1185 324.299L17.5969 323.611L17.4172 323.748L14.2861 319.62L14.4656 319.484L13.944 318.796L13.7643 318.933L10.6333 314.805L10.8128 314.669L10.2911 313.981L10.1114 314.117L6.98039 309.99L7.15987 309.854L6.63821 309.166L6.45855 309.302L3.32751 305.175L3.50699 305.039L2.98534 304.35L2.80567 304.487L-0.325368 300.36L-0.145887 300.224L-0.667544 299.535L-0.847205 299.672L-3.97825 295.545L-3.79877 295.409L-4.32042 294.72L-4.50009 294.857L-7.63113 290.729L-7.45164 290.594L-7.9733 289.905L-8.15296 290.042L-11.284 285.914L-11.1045 285.779L-11.6262 285.09L-11.8058 285.227L-14.9369 281.099L-14.7574 280.963L-15.2791 280.275L-15.4587 280.412L-18.5898 276.284L-18.4103 276.148L-18.9319 275.46L-19.1116 275.597L-22.2426 271.469L-22.0632 271.333L-22.5848 270.645L-22.7645 270.781L-25.8955 266.654L-25.716 266.518L-26.2377 265.83L-26.4174 265.966L-29.5484 261.839L-29.3689 261.703L-29.8906 261.014L-30.0702 261.151L-33.2013 257.024L-33.0218 256.888L-33.5435 256.199L-33.7231 256.336L-36.8542 252.209L-36.6747 252.073L-37.1963 251.384L-37.376 251.521L-40.507 247.393L-40.3276 247.258L-40.8492 246.569L-41.0289 246.706L-44.1599 242.578L-43.9804 242.443L-44.138 242.235L-43.864 242.027L-43.9675 241.891L-38.527 237.763L-38.4235 237.899L-37.5168 237.211L-37.6203 237.076L-32.1799 232.948L-32.0764 233.084L-31.1697 232.396L-31.2732 232.261L-25.8328 228.133L-25.7293 228.269L-24.8226 227.581L-24.9261 227.445L-19.4855 223.318L-19.3821 223.454L-18.4756 222.766L-18.579 222.63L-13.1385 218.503L-13.035 218.639L-12.1284 217.951L-12.2319 217.815L-6.7914 213.688L-6.68789 213.824L-5.78132 213.136L-5.88474 213L-0.444284 208.873L-0.340772 209.008L0.565797 208.321L0.462384 208.185L5.90284 204.057L6.00635 204.193L6.91292 203.506L6.8095 203.37L12.25 199.242L12.3534 199.378L13.26 198.691L13.1566 198.555L18.5971 194.427L18.7002 194.564L19.6072 193.875L19.5037 193.74L24.9442 189.612L25.0473 189.749L25.9543 189.06L25.8509 188.925L31.2913 184.797L31.3945 184.934L32.3014 184.245L32.198 184.109L37.6384 179.982L37.7416 180.119L38.6485 179.43L38.5451 179.294L43.9856 175.167L44.0887 175.304L44.9956 174.615L44.8922 174.479L50.3327 170.352L50.4358 170.488L51.3428 169.8L51.2393 169.664L56.6798 165.537L56.7829 165.673L57.6899 164.985L57.5865 164.849L63.0269 160.722L63.1301 160.858L64.037 160.17L63.9336 160.034L69.374 155.906L69.4772 156.043L70.3845 155.355L70.2805 155.219L75.7213 151.091L75.824 151.228L76.7316 150.54L76.6276 150.404L82.0684 146.276L82.1711 146.413L83.0788 145.724L82.9748 145.589L88.4155 141.461L88.5182 141.598L89.4259 140.909L89.3219 140.774L94.7626 136.646L94.8654 136.783L95.7729 136.094L95.669 135.958L101.11 131.831L101.213 131.967L102.12 131.279L102.016 131.143L107.457 127.016L107.56 127.152L108.467 126.464L108.363 126.328L113.804 122.201L113.907 122.337L114.814 121.649L114.71 121.513L120.151 117.386L120.254 117.522L121.161 116.834L121.057 116.698L126.498 112.571L126.601 112.707L127.509 112.019L127.405 111.883L132.845 107.755L132.948 107.892L133.856 107.204L133.752 107.068L139.192 102.94L139.295 103.077L140.203 102.389L140.099 102.253L145.54 98.1252L145.642 98.2615L146.55 97.5736L146.446 97.4374L151.887 93.3101L151.99 93.4464L152.897 92.7585L152.793 92.6223L158.234 88.495L158.337 88.6313L159.244 87.9434L159.14 87.8072L164.581 83.6799L164.684 83.8162L165.591 83.1283L165.487 82.9921L170.928 78.8648L171.031 79.0011L171.938 78.3132L171.834 78.177L177.275 74.0497L177.378 74.186L178.285 73.4981L178.182 73.3619L183.622 69.2346L183.725 69.3708L184.633 68.683L184.529 68.5468L189.969 64.4195L190.072 64.5557L190.98 63.8678L190.876 63.7317L196.317 59.6044L196.419 59.7406L197.327 59.0527L197.223 58.9166L202.664 54.7892L202.767 54.9255L203.674 54.2376L203.57 54.1015Z" stroke="#FF8AED" stroke-width="0.4" stroke-dasharray="1 6"/>
<path d="M50.491 112.366L52.124 106.529H52.324L52.4062 106.235H52.7114L52.7653 106.043H58.8262L58.7723 106.235L59.7824 106.235L59.8363 106.043H65.8972L65.8433 106.235H66.8535L66.9074 106.043H72.9683L72.9144 106.235L73.9246 106.235L73.9785 106.043L80.0394 106.043L79.9855 106.235H80.9956L81.0495 106.043H87.1105L87.0566 106.235H88.0666L88.1205 106.043H94.1815L94.1276 106.235H95.1376L95.1915 106.043L101.252 106.043L101.199 106.235H102.209L102.262 106.043H108.323L108.27 106.235H109.28L109.333 106.043H115.394L115.341 106.235L116.351 106.235L116.404 106.043L122.465 106.043L122.412 106.235L123.422 106.235L123.475 106.043L129.536 106.043L129.483 106.235H130.493L130.546 106.043H136.607L136.554 106.235L137.565 106.235L137.618 106.043H143.678L143.625 106.235H144.636L144.689 106.043H150.75L150.697 106.235L151.707 106.235L151.76 106.043L157.821 106.043L157.768 106.235L158.778 106.235L158.831 106.043L164.892 106.043L164.839 106.235L165.849 106.235L165.902 106.043H171.963L171.91 106.235L172.92 106.235L172.973 106.043H179.034L178.981 106.235H179.991L180.044 106.043H186.105L186.052 106.235H187.062L187.115 106.043L193.176 106.043L193.123 106.235H194.133L194.186 106.043H200.247L200.194 106.235H201.204L201.257 106.043H207.318L207.265 106.235H208.275L208.328 106.043H214.389L214.336 106.235H215.346L215.399 106.043H221.46L221.407 106.235H222.417L222.47 106.043H228.531L228.478 106.235H229.488L229.541 106.043H235.602L235.549 106.235H236.559L236.612 106.043H242.673L242.62 106.235H243.63L243.683 106.043H249.744L249.691 106.235H250.702L250.755 106.043H256.815L256.762 106.235H257.773L257.826 106.043H263.887L263.834 106.235H264.844L264.897 106.043H270.958L270.905 106.235H271.915L271.968 106.043H278.029L277.976 106.235H278.986L279.039 106.043H285.1L285.047 106.235H286.057L286.11 106.043H292.171L292.118 106.235H293.128L293.181 106.043H299.242L299.189 106.235H300.199L300.252 106.043H306.313L306.26 106.235H307.27L307.323 106.043H313.384L313.331 106.235H314.341L314.394 106.043H320.455L320.402 106.235H321.412L321.465 106.043H327.526L327.473 106.235H328.483L328.537 106.043H334.597L334.544 106.235H334.849L334.766 106.529H334.966L333.333 112.366H333.133L332.861 113.339H333.061L331.428 119.176H331.228L330.956 120.148H331.156L329.523 125.985H329.323L329.051 126.958H329.251L327.618 132.795H327.418L327.146 133.768H327.346L325.713 139.604H325.513L325.241 140.577H325.441L323.808 146.414H323.608L323.336 147.387H323.536L321.903 153.223H321.703L321.431 154.196H321.631L319.998 160.033H319.798L319.526 161.006H319.726L318.093 166.843H317.893L317.62 167.815H317.82L316.187 173.652H315.987L315.715 174.625H315.915L314.282 180.462H314.082L313.81 181.435H314.01L312.377 187.271H312.177L311.905 188.245H312.105L310.472 194.082H310.272L310 195.054H310.2L308.567 200.891H308.367L308.095 201.864H308.295L306.662 207.701H306.462L306.19 208.673H306.39L304.757 214.51H304.557L304.284 215.483H304.484L302.852 221.32H302.651L302.379 222.292H302.579L300.946 228.129H300.746L300.474 229.102H300.674L299.041 234.939H298.841L298.569 235.911H298.769L297.136 241.748H296.936L296.664 242.721H296.864L295.231 248.558H295.031L294.759 249.53H294.959L293.326 255.367H293.126L292.854 256.34H293.054L291.421 262.177H291.221L290.949 263.15H291.149L289.516 268.986H289.316L289.044 269.959H289.244L287.611 275.796H287.411L287.139 276.769H287.339L285.706 282.605H285.506L285.233 283.578H285.434L283.801 289.415H283.601L283.328 290.389H283.528L281.895 296.224H281.695L281.423 297.198H281.623L279.99 303.035H279.79L279.518 304.008H279.718L278.085 309.844H277.885L277.613 310.817H277.813L276.18 316.654H275.98L275.708 317.627H275.908L274.275 323.464H274.075L273.803 324.436H274.003L272.37 330.273H272.17L271.898 331.246H272.098L270.465 337.083H270.265L269.992 338.055H270.192L268.559 343.892H268.359L268.087 344.865H268.287L266.654 350.702H266.454L266.182 351.674H266.382L264.749 357.511H264.549L264.277 358.484H264.477L262.844 364.321H262.644L262.372 365.293H262.572L260.939 371.13H260.739L260.467 372.103H260.667L259.034 377.94H258.834L258.752 378.233H258.447L258.393 378.426H252.332L252.386 378.233H251.376L251.322 378.426H245.261L245.315 378.233H244.305L244.251 378.426H238.19L238.244 378.233H237.234L237.18 378.426H231.119L231.173 378.233H230.163L230.109 378.426H224.048L224.102 378.233H223.092L223.038 378.426H216.977L217.031 378.233H216.021L215.967 378.426H209.906L209.96 378.233H208.95L208.896 378.426H202.835L202.889 378.233H201.879L201.825 378.426H195.764L195.818 378.233H194.808L194.754 378.426H188.693L188.747 378.233H187.736L187.682 378.426H181.622L181.676 378.233H180.665L180.611 378.426H174.55L174.604 378.233H173.594L173.54 378.426H167.479L167.533 378.233H166.523L166.469 378.426H160.408L160.462 378.233H159.452L159.398 378.426H153.337L153.391 378.233H152.381L152.327 378.426H146.266L146.32 378.233H145.31L145.256 378.426H139.195L139.249 378.233H138.239L138.185 378.426H132.124L132.178 378.233H131.168L131.114 378.426H125.053L125.107 378.233H124.097L124.043 378.426H117.982L118.036 378.233H117.026L116.972 378.426H110.911L110.965 378.233H109.955L109.901 378.426H103.84L103.894 378.233H102.884L102.83 378.426H96.7689L96.8228 378.233H95.8128L95.7589 378.426H89.6979L89.7518 378.233H88.7418L88.6879 378.426H82.6269L82.6808 378.233H81.6708L81.6169 378.426H75.5559L75.6098 378.233H74.5988L74.5449 378.426H68.4849L68.5388 378.233H67.5278L67.4739 378.426H61.4129L61.4668 378.233H60.4568L60.4029 378.426H54.3419L54.3958 378.233H53.3858L53.3319 378.426H47.2709L47.3248 378.233H46.3148L46.2609 378.426H40.1999L40.2538 378.233H39.2438L39.1899 378.426H33.1289L33.1828 378.233H32.1728L32.1189 378.426H26.0579L26.1118 378.233H25.1018L25.0479 378.426H18.9869L19.0408 378.233H18.0308L17.9769 378.426H11.9159L11.9698 378.233H10.9598L10.9059 378.426H4.84482L4.89871 378.233H3.88862L3.83473 378.426H-2.22618L-2.17229 378.233H-3.18249L-3.23638 378.426H-9.29728L-9.24339 378.233H-10.2536L-10.3075 378.426H-16.3684L-16.3145 378.233H-17.3246L-17.3785 378.426H-23.4394L-23.3855 378.233H-23.6906L-23.6084 377.94H-23.8084L-22.1754 372.103H-21.9754L-21.7033 371.13H-21.9033L-20.2703 365.293H-20.0703L-19.7982 364.321H-19.9982L-18.3652 358.484H-18.1652L-17.8931 357.511H-18.0931L-16.4601 351.674H-16.2601L-15.988 350.702H-16.188L-14.5551 344.865H-14.355L-14.0829 343.892H-14.2829L-12.6499 338.055H-12.4499L-12.1778 337.083H-12.3778L-10.7448 331.246H-10.5448L-10.2727 330.273H-10.4727L-8.83975 324.436H-8.63975L-8.36763 323.464H-8.56763L-6.93465 317.627H-6.73465L-6.46254 316.654H-6.66254L-5.02956 310.817H-4.82955L-4.55743 309.844H-4.75744L-3.12446 304.008H-2.92445L-2.65207 303.034H-2.85207L-1.21936 297.198H-1.01936L-0.746967 296.224H-0.946972L0.686 290.388H0.886005L1.15813 289.415H0.958121L2.5911 283.578H2.79111L3.06322 282.605H2.86322L4.4962 276.769H4.6962L4.96832 275.796H4.76832L6.4013 269.959H6.6013L6.87342 268.986H6.67341L8.30639 263.15H8.5064L8.77852 262.177H8.57852L10.2115 256.34H10.4115L10.6836 255.367H10.4836L12.1166 249.53H12.3166L12.5887 248.558H12.3887L14.0217 242.721H14.2217L14.4938 241.748H14.2938L15.9268 235.911H16.1268L16.3989 234.939H16.1989L17.8319 229.102H18.0319L18.304 228.129H18.104L19.737 222.292H19.937L20.2091 221.32H20.0091L21.6421 215.483H21.8421L22.1142 214.51H21.9142L23.5472 208.673H23.7472L24.0193 207.701H23.8193L25.4523 201.864H25.6523L25.9244 200.891H25.7244L27.3574 195.054H27.5574L27.8298 194.081H27.6298L29.2625 188.245H29.4625L29.7349 187.271H29.5349L31.1678 181.434H31.3678L31.64 180.462H31.44L33.0729 174.625H33.2729L33.5451 173.652H33.3451L34.978 167.815H35.178L35.4502 166.843H35.2502L36.8831 161.006H37.0831L37.3553 160.033H37.1552L38.7882 154.196H38.9882L39.2604 153.223H39.0603L40.6933 147.387H40.8933L41.1654 146.414H40.9654L42.5984 140.577H42.7984L43.0705 139.604H42.8705L44.5035 133.768H44.7035L44.9757 132.795H44.7757L46.4086 126.958H46.6087L46.8808 125.985H46.6808L48.3137 120.148H48.5137L48.7859 119.176H48.5859L50.2189 113.339H50.4189L50.691 112.366H50.491Z" stroke="url(#paint6_linear_1_1072)" stroke-width="0.4" stroke-dasharray="1 6"/>
<path opacity="0.5" d="M235.579 242.235C247.483 199.686 221.316 165.193 177.133 165.193C132.95 165.193 87.4831 199.686 75.5792 242.235C63.6752 284.784 89.8424 319.276 134.025 319.276C178.208 319.276 223.675 284.784 235.579 242.235Z" stroke="#FF8AED" stroke-width="40" stroke-dasharray="0.4 32"/>
</g>
</g>
<defs>
<filter id="filter0_b_1_1072" x="-302.25" y="-302.75" width="916.5" height="1017.5" filterUnits="userSpaceOnUse" color-interpolation-filters="sRGB">
<feFlood flood-opacity="0" result="BackgroundImageFix"/>
<feGaussianBlur in="BackgroundImageFix" stdDeviation="154"/>
<feComposite in2="SourceAlpha" operator="in" result="effect1_backgroundBlur_1_1072"/>
<feBlend mode="normal" in="SourceGraphic" in2="effect1_backgroundBlur_1_1072" result="shape"/>
</filter>
<filter id="filter1_b_1_1072" x="-106.648" y="-323" width="738.148" height="729.878" filterUnits="userSpaceOnUse" color-interpolation-filters="sRGB">
<feFlood flood-opacity="0" result="BackgroundImageFix"/>
<feGaussianBlur in="BackgroundImageFix" stdDeviation="163.5"/>
<feComposite in2="SourceAlpha" operator="in" result="effect1_backgroundBlur_1_1072"/>
<feBlend mode="normal" in="SourceGraphic" in2="effect1_backgroundBlur_1_1072" result="shape"/>
</filter>
<linearGradient id="paint0_linear_1_1072" x1="156" y1="405.5" x2="156" y2="6.5" gradientUnits="userSpaceOnUse">
<stop stop-color="#0E0E0E"/>
<stop offset="1" stop-color="#0E0E0E" stop-opacity="0"/>
</linearGradient>
<linearGradient id="paint1_linear_1_1072" x1="305" y1="206" x2="7" y2="206" gradientUnits="userSpaceOnUse">
<stop offset="0.802083" stop-color="#21FCFF"/>
<stop offset="1" stop-color="#FD40FF"/>
</linearGradient>
<linearGradient id="paint2_linear_1_1072" x1="308" y1="40.25" x2="215.5" y2="40.25" gradientUnits="userSpaceOnUse">
<stop stop-color="#00DBDE"/>
<stop offset="1" stop-color="#FC00FF"/>
</linearGradient>
<linearGradient id="paint3_linear_1_1072" x1="19.5001" y1="35" x2="197.917" y2="149.084" gradientUnits="userSpaceOnUse">
<stop stop-color="#FF8AED"/>
<stop offset="1" stop-color="#FF8AED" stop-opacity="0"/>
</linearGradient>
<linearGradient id="paint4_linear_1_1072" x1="42.5001" y1="49" x2="202.292" y2="182.295" gradientUnits="userSpaceOnUse">
<stop stop-color="#FF8AED"/>
<stop offset="1" stop-color="#FF8AED" stop-opacity="0"/>
</linearGradient>
<linearGradient id="paint5_linear_1_1072" x1="170.128" y1="190.231" x2="170.128" y2="294.238" gradientUnits="userSpaceOnUse">
<stop stop-color="#F00AFE"/>
<stop offset="1" stop-color="#F00AFE" stop-opacity="0.43"/>
</linearGradient>
<linearGradient id="paint6_linear_1_1072" x1="193.681" y1="106.043" x2="363.565" y2="343.972" gradientUnits="userSpaceOnUse">
<stop stop-color="#FF8AED"/>
<stop offset="1" stop-color="#FF8AED" stop-opacity="0"/>
</linearGradient>
<clipPath id="clip0_1_1072">
<rect width="298" height="399" fill="white" transform="matrix(-1 0 0 -1 305 405.5)"/>
</clipPath>
<clipPath id="clip1_1_1072">
<rect width="298" height="372" fill="white" transform="translate(7 40)"/>
</clipPath>
<clipPath id="clip2_1_1072">
<rect width="420" height="420" fill="white" transform="matrix(1 0 -0.269424 0.963022 2.1582 40)"/>
</clipPath>
</defs>
</svg>
