<svg width="308" height="406" viewBox="0 0 308 406" fill="none" xmlns="http://www.w3.org/2000/svg">
<g clip-path="url(#clip0_1_1040)">
<g filter="url(#filter0_b_1_1040)">
<path d="M122.645 2.83654L7.25203 100.405C4.55543 102.685 3 106.037 3 109.568V293.291C3 296.903 4.62721 300.323 7.43003 302.602L122.693 396.311C124.832 398.05 127.505 399 130.263 399H289C295.627 399 301 393.627 301 387V12C301 5.37258 295.627 0 289 0H130.393C127.556 0 124.811 1.00496 122.645 2.83654Z" fill="url(#paint0_linear_1_1040)" fill-opacity="0.77"/>
<path d="M122.645 2.83654L7.25203 100.405C4.55543 102.685 3 106.037 3 109.568V293.291C3 296.903 4.62721 300.323 7.43003 302.602L122.693 396.311C124.832 398.05 127.505 399 130.263 399H289C295.627 399 301 393.627 301 387V12C301 5.37258 295.627 0 289 0H130.393C127.556 0 124.811 1.00496 122.645 2.83654Z" fill="black" fill-opacity="0.2"/>
<path d="M122.645 2.83654L7.25203 100.405C4.55543 102.685 3 106.037 3 109.568V293.291C3 296.903 4.62721 300.323 7.43003 302.602L122.693 396.311C124.832 398.05 127.505 399 130.263 399H289C295.627 399 301 393.627 301 387V12C301 5.37258 295.627 0 289 0H130.393C127.556 0 124.811 1.00496 122.645 2.83654Z" stroke="url(#paint1_linear_1_1040)" stroke-width="2.5"/>
</g>
<g clip-path="url(#clip1_1_1040)">
<g clip-path="url(#clip2_1_1040)">
<path opacity="0.9" d="M75.6356 229.87C62.5992 181.755 92.4422 142.751 142.292 142.751C192.141 142.751 243.121 181.755 256.157 229.87C269.193 277.985 239.351 316.99 189.501 316.99C139.651 316.99 88.6721 277.985 75.6356 229.87Z" stroke="#38DBFF" stroke-width="0.907143"/>
<path d="M116.911 229.871C109.836 203.758 126.032 182.59 153.086 182.59C180.14 182.59 207.807 203.758 214.882 229.871C221.957 255.983 205.761 277.152 178.707 277.152C151.653 277.152 123.986 255.983 116.911 229.871Z" fill="url(#paint2_linear_1_1040)" stroke="#38DBFF" stroke-width="0.362857" stroke-dasharray="0.91 5.44"/>
<path opacity="0.2" d="M66.5646 229.87C52.218 176.92 85.0602 133.995 139.92 133.995C194.779 133.995 250.882 176.92 265.229 229.87C279.576 282.821 246.733 325.746 191.874 325.746C137.014 325.746 80.9112 282.821 66.5646 229.87Z" stroke="#38DBFF" stroke-width="0.907143"/>
<path opacity="0.2" d="M118.725 229.87C111.912 204.725 127.509 184.341 153.561 184.341C179.613 184.341 206.255 204.725 213.068 229.87C219.881 255.016 204.285 275.4 178.233 275.4C152.181 275.4 125.538 255.016 118.725 229.87Z" stroke="#38DBFF" stroke-width="87.0857" stroke-dasharray="0.36 29.03"/>
<path opacity="0.1" d="M2.61088 229.87C-20.9726 142.828 33.0147 72.2671 123.195 72.2671C213.375 72.2671 305.599 142.828 329.182 229.87C352.766 316.912 298.779 387.474 208.598 387.474C118.418 387.474 26.1944 316.912 2.61088 229.87Z" stroke="#38DBFF" stroke-width="36.2857" stroke-dasharray="0.36 29.03"/>
<path opacity="0.3" d="M-15.0785 229.871C-41.2169 133.399 18.619 55.1936 118.569 55.1936C218.518 55.1936 320.733 133.399 346.872 229.871C373.01 326.342 313.174 404.547 213.224 404.547C113.275 404.547 11.0599 326.342 -15.0785 229.871Z" stroke="#38DBFF" stroke-width="0.907143"/>
<path opacity="0.3" d="M-24.422 229.87C-51.9099 128.418 11.0153 46.175 116.125 46.175C221.235 46.175 328.727 128.418 356.215 229.87C383.703 331.323 320.778 413.566 215.668 413.566C110.558 413.566 3.06593 331.323 -24.422 229.87Z" stroke="#38DBFF" stroke-width="0.362857"/>
<path d="M118.569 55.1936L139.92 133.995" stroke="url(#paint3_linear_1_1040)" stroke-width="0.907143" stroke-dasharray="0.91 5.44"/>
<path d="M118.569 55.1936L139.92 133.995" stroke="url(#paint4_linear_1_1040)" stroke-width="0.907143" stroke-dasharray="0.91 5.44"/>
<path d="M-15.532 229.87H66.1108" stroke="url(#paint5_linear_1_1040)" stroke-width="0.907143" stroke-dasharray="0.91 5.44"/>
<path d="M-15.532 229.87H66.1108" stroke="url(#paint6_linear_1_1040)" stroke-width="0.907143" stroke-dasharray="0.91 5.44"/>
<path d="M347.325 229.87H265.682" stroke="url(#paint7_linear_1_1040)" stroke-width="0.907143" stroke-dasharray="0.91 5.44"/>
<path d="M213.343 404.985L191.992 326.183" stroke="url(#paint8_linear_1_1040)" stroke-width="0.907143" stroke-dasharray="0.91 5.44"/>
<path d="M83.7137 124.914L118.687 55.6311L191.205 124.914C256.326 187.131 279.486 272.61 248.079 334.826L213.106 404.109L140.588 334.826C75.4664 272.61 52.3064 187.131 83.7137 124.914Z" stroke="#38DBFF" stroke-width="0.907143" stroke-dasharray="0.91 5.44"/>
<path d="M260.582 177.995L346.418 229.87L288.692 281.745C236.854 328.33 148.294 328.33 71.2119 281.745L-14.6247 229.87L43.1014 177.995C94.9392 131.41 183.5 131.41 260.582 177.995Z" stroke="#38DBFF" stroke-width="0.907143" stroke-dasharray="0.91 5.44"/>
<path opacity="0.2" d="M290.961 267.405L326.927 353.076L234.831 340.767C152.127 329.713 73.1296 269.271 40.8319 192.336L4.86702 106.665L96.9624 118.974C179.666 130.028 258.664 190.47 290.961 267.405Z" stroke="#38DBFF" stroke-width="0.907143" stroke-dasharray="0.91 5.44"/>
<path opacity="0.3" d="M174.737 118.974L260.163 106.665L270.622 192.336C280.015 269.271 233.77 329.713 157.056 340.767L71.6309 353.076L61.1713 267.404C51.7789 190.47 98.0235 130.028 174.737 118.974Z" stroke="#38DBFF" stroke-width="0.907143" stroke-dasharray="0.91 5.44"/>
<path opacity="0.1" d="M-15.532 229.87L118.687 55.6311L347.325 229.87L213.106 404.109L-15.532 229.87Z" stroke="#38DBFF" stroke-width="0.907143"/>
</g>
</g>
</g>
<path d="M301 317V81L308 89.5V308L301 317Z" fill="#56FFEB"/>
<path d="M0 400.5V333.5C0 330.179 3.90695 328.4 6.41191 330.58L82.4207 396.728C85.9084 399.763 83.7617 405.5 79.1383 405.5H5C2.23858 405.5 0 403.261 0 400.5Z" fill="url(#paint9_linear_1_1040)"/>
<g filter="url(#filter1_b_1_1040)">
<path d="M3.5 396.5V329.5C3.5 326.179 7.40695 324.4 9.91191 326.58L85.9207 392.728C89.4084 395.763 87.2617 401.5 82.6383 401.5H8.5C5.73858 401.5 3.5 399.261 3.5 396.5Z" fill="#182E33"/>
</g>
<defs>
<filter id="filter0_b_1_1040" x="-306.25" y="-309.25" width="916.5" height="1017.5" filterUnits="userSpaceOnUse" color-interpolation-filters="sRGB">
<feFlood flood-opacity="0" result="BackgroundImageFix"/>
<feGaussianBlur in="BackgroundImageFix" stdDeviation="154"/>
<feComposite in2="SourceAlpha" operator="in" result="effect1_backgroundBlur_1_1040"/>
<feBlend mode="normal" in="SourceGraphic" in2="effect1_backgroundBlur_1_1040" result="shape"/>
</filter>
<filter id="filter1_b_1_1040" x="-323.5" y="-1.37842" width="738.148" height="729.878" filterUnits="userSpaceOnUse" color-interpolation-filters="sRGB">
<feFlood flood-opacity="0" result="BackgroundImageFix"/>
<feGaussianBlur in="BackgroundImageFix" stdDeviation="163.5"/>
<feComposite in2="SourceAlpha" operator="in" result="effect1_backgroundBlur_1_1040"/>
<feBlend mode="normal" in="SourceGraphic" in2="effect1_backgroundBlur_1_1040" result="shape"/>
</filter>
<linearGradient id="paint0_linear_1_1040" x1="152" y1="0" x2="152" y2="399" gradientUnits="userSpaceOnUse">
<stop stop-opacity="0"/>
<stop offset="1" stop-color="#0E0E0E"/>
</linearGradient>
<linearGradient id="paint1_linear_1_1040" x1="3" y1="199.5" x2="301" y2="199.5" gradientUnits="userSpaceOnUse">
<stop stop-color="#21FCFF"/>
<stop offset="1" stop-color="#FD40FF"/>
</linearGradient>
<linearGradient id="paint2_linear_1_1040" x1="153.086" y1="182.59" x2="153.086" y2="277.152" gradientUnits="userSpaceOnUse">
<stop stop-color="#00E8FF"/>
<stop offset="1" stop-color="#38DBFF" stop-opacity="0.38"/>
</linearGradient>
<linearGradient id="paint3_linear_1_1040" x1="118.069" y1="55.1936" x2="118.069" y2="133.995" gradientUnits="userSpaceOnUse">
<stop stop-color="#38DBFF"/>
<stop offset="1" stop-color="#38DBFF"/>
</linearGradient>
<linearGradient id="paint4_linear_1_1040" x1="118.069" y1="55.1936" x2="118.069" y2="133.995" gradientUnits="userSpaceOnUse">
<stop stop-color="#38DBFF"/>
<stop offset="1" stop-color="#38DBFF"/>
</linearGradient>
<linearGradient id="paint5_linear_1_1040" x1="-nan" y1="-nan" x2="-nan" y2="-nan" gradientUnits="userSpaceOnUse">
<stop stop-color="white" stop-opacity="0.2"/>
<stop offset="1" stop-color="white"/>
</linearGradient>
<linearGradient id="paint6_linear_1_1040" x1="25.2894" y1="229.87" x2="25.2894" y2="230.836" gradientUnits="userSpaceOnUse">
<stop stop-color="#38DBFF"/>
<stop offset="1" stop-color="#38DBFF"/>
</linearGradient>
<linearGradient id="paint7_linear_1_1040" x1="306.504" y1="229.87" x2="306.504" y2="230.836" gradientUnits="userSpaceOnUse">
<stop stop-color="#38DBFF"/>
<stop offset="1" stop-color="#38DBFF"/>
</linearGradient>
<linearGradient id="paint8_linear_1_1040" x1="-nan" y1="-nan" x2="-nan" y2="-nan" gradientUnits="userSpaceOnUse">
<stop stop-color="white" stop-opacity="0.2"/>
<stop offset="1" stop-color="white"/>
</linearGradient>
<linearGradient id="paint9_linear_1_1040" x1="0" y1="365.25" x2="92.5" y2="365.25" gradientUnits="userSpaceOnUse">
<stop stop-color="#00DBDE"/>
<stop offset="1" stop-color="#FC00FF"/>
</linearGradient>
<clipPath id="clip0_1_1040">
<rect width="298" height="399" fill="white" transform="translate(3)"/>
</clipPath>
<clipPath id="clip1_1_1040">
<rect width="335.643" height="381" fill="white" transform="matrix(-1 0 0 1 333.643 46)"/>
</clipPath>
<clipPath id="clip2_1_1040">
<rect width="381" height="381" fill="white" transform="matrix(-1 0 0.261515 0.965199 306.577 46)"/>
</clipPath>
</defs>
</svg>
