<svg width="331" height="400" viewBox="0 0 331 400" fill="none" xmlns="http://www.w3.org/2000/svg">
<g clip-path="url(#clip0_1_1000)">
<g filter="url(#filter0_b_1_1000)">
<path d="M289.71 0H40.0308C37.0904 0 34.2523 1.07961 32.0553 3.03389L19.0245 14.6251C16.4645 16.9022 15 20.165 15 23.5912V102.341V378.761C15 382.259 16.5262 385.583 19.1791 387.862L31.0944 398.101C33.2709 399.972 36.0456 401 38.9153 401H290.18C292.688 401 295.133 400.214 297.171 398.753L310.991 388.846C314.135 386.592 316 382.961 316 379.093V23.8447C316 20.2723 314.408 16.8856 311.658 14.6058L297.368 2.7611C295.215 0.976592 292.506 0 289.71 0Z" fill="url(#paint0_linear_1_1000)" fill-opacity="0.77"/>
<path d="M289.71 0H40.0308C37.0904 0 34.2523 1.07961 32.0553 3.03389L19.0245 14.6251C16.4645 16.9022 15 20.165 15 23.5912V102.341V378.761C15 382.259 16.5262 385.583 19.1791 387.862L31.0944 398.101C33.2709 399.972 36.0456 401 38.9153 401H290.18C292.688 401 295.133 400.214 297.171 398.753L310.991 388.846C314.135 386.592 316 382.961 316 379.093V23.8447C316 20.2723 314.408 16.8856 311.658 14.6058L297.368 2.7611C295.215 0.976592 292.506 0 289.71 0Z" fill="black" fill-opacity="0.2"/>
<path d="M289.71 0H40.0308C37.0904 0 34.2523 1.07961 32.0553 3.03389L19.0245 14.6251C16.4645 16.9022 15 20.165 15 23.5912V102.341V378.761C15 382.259 16.5262 385.583 19.1791 387.862L31.0944 398.101C33.2709 399.972 36.0456 401 38.9153 401H290.18C292.688 401 295.133 400.214 297.171 398.753L310.991 388.846C314.135 386.592 316 382.961 316 379.093V23.8447C316 20.2723 314.408 16.8856 311.658 14.6058L297.368 2.7611C295.215 0.976592 292.506 0 289.71 0Z" stroke="url(#paint1_linear_1_1000)" stroke-width="2.5"/>
</g>
<g clip-path="url(#clip1_1_1000)">
<g clip-path="url(#clip2_1_1000)">
<path d="M167.238 264.516L227.651 235.863L211.831 294.249L151.272 323.442L167.238 264.516Z" fill="url(#paint2_linear_1_1000)"/>
<path d="M167.238 264.516L122.351 235.863L106.532 294.249L151.272 323.442L167.238 264.516Z" fill="url(#paint3_linear_1_1000)"/>
<path d="M167.327 265.005L227.65 235.863L182.925 206.13L122.351 235.863L167.327 265.005Z" fill="#905DFF"/>
<path opacity="0.4" d="M182.146 207.039C182.18 207.142 182.307 207.179 182.431 207.118L182.843 206.92L183.148 207.118C183.239 207.179 183.386 207.142 183.475 207.039L187.939 209.951C187.849 210.055 187.85 210.187 187.942 210.246L188.74 210.767C188.831 210.828 188.978 210.791 189.068 210.688L193.531 213.6C193.442 213.704 193.443 213.836 193.534 213.895L194.333 214.416C194.424 214.477 194.571 214.44 194.66 214.337L199.124 217.249C199.034 217.353 199.035 217.485 199.127 217.544L199.925 218.065C200.016 218.126 200.163 218.089 200.253 217.986L204.716 220.898C204.626 221.002 204.628 221.134 204.719 221.193L205.518 221.715C205.609 221.775 205.756 221.738 205.845 221.636L210.309 224.547C210.219 224.651 210.22 224.783 210.312 224.842L211.11 225.364C211.201 225.424 211.348 225.387 211.437 225.285L215.901 228.196C215.811 228.3 215.813 228.432 215.904 228.492L216.703 229.013C216.794 229.073 216.941 229.037 217.03 228.934L221.494 231.846C221.404 231.949 221.405 232.081 221.497 232.141L222.295 232.662C222.386 232.722 222.533 232.686 222.622 232.583L227.086 235.495C226.996 235.598 226.998 235.73 227.089 235.79L227.393 235.989L227.285 236.385C227.253 236.505 227.328 236.601 227.451 236.601L225.873 242.424C225.75 242.424 225.623 242.52 225.59 242.64L225.308 243.683C225.275 243.803 225.35 243.899 225.473 243.899L223.896 249.722C223.772 249.722 223.645 249.819 223.613 249.939L223.33 250.981C223.298 251.101 223.373 251.197 223.496 251.197L221.918 257.021C221.795 257.021 221.668 257.117 221.635 257.237L221.353 258.279C221.321 258.399 221.395 258.495 221.519 258.495L219.941 264.319C219.817 264.319 219.691 264.415 219.658 264.535L219.376 265.577C219.343 265.697 219.418 265.794 219.541 265.794L217.963 271.617C217.84 271.617 217.713 271.713 217.681 271.833L217.398 272.876C217.366 272.996 217.44 273.092 217.564 273.092L215.986 278.915C215.863 278.915 215.736 279.012 215.703 279.132L215.421 280.174C215.388 280.294 215.463 280.39 215.586 280.39L214.008 286.214C213.885 286.214 213.758 286.31 213.726 286.43L213.443 287.472C213.411 287.592 213.486 287.688 213.609 287.688L212.031 293.512C211.908 293.512 211.781 293.608 211.748 293.728L211.641 294.124L211.23 294.323C211.106 294.382 211.034 294.514 211.067 294.618L205.026 297.53C204.992 297.427 204.865 297.39 204.741 297.451L203.66 297.972C203.536 298.031 203.464 298.163 203.497 298.267L197.456 301.179C197.422 301.076 197.295 301.039 197.171 301.1L196.09 301.621C195.966 301.681 195.894 301.812 195.927 301.916L189.886 304.828C189.852 304.725 189.725 304.688 189.601 304.749L188.52 305.27C188.397 305.33 188.324 305.462 188.357 305.565L182.316 308.477C182.282 308.374 182.155 308.338 182.031 308.398L180.95 308.919C180.827 308.979 180.754 309.111 180.787 309.214L174.746 312.126C174.712 312.023 174.585 311.987 174.461 312.047L173.38 312.568C173.257 312.628 173.184 312.76 173.218 312.864L167.176 315.775C167.142 315.673 167.015 315.636 166.892 315.696L165.81 316.218C165.687 316.277 165.614 316.409 165.648 316.513L159.606 319.424C159.572 319.322 159.446 319.285 159.322 319.346L158.241 319.867C158.117 319.926 158.044 320.058 158.078 320.162L152.036 323.074C152.002 322.971 151.876 322.934 151.752 322.995L151.34 323.192L151.035 322.995C150.944 322.934 150.797 322.971 150.708 323.074L146.244 320.162C146.334 320.058 146.332 319.926 146.241 319.867L145.442 319.346C145.351 319.285 145.205 319.322 145.115 319.424L140.651 316.513C140.741 316.409 140.74 316.277 140.648 316.218L139.85 315.696C139.759 315.636 139.612 315.673 139.523 315.775L135.059 312.864C135.149 312.76 135.147 312.628 135.056 312.568L134.257 312.047C134.166 311.987 134.02 312.023 133.93 312.126L129.466 309.214C129.556 309.111 129.555 308.979 129.463 308.919L128.665 308.398C128.574 308.338 128.427 308.374 128.338 308.477L123.874 305.565C123.964 305.462 123.962 305.33 123.871 305.27L123.072 304.749C122.981 304.688 122.835 304.725 122.745 304.828L118.281 301.916C118.371 301.812 118.37 301.681 118.278 301.621L117.48 301.1C117.389 301.039 117.242 301.076 117.153 301.179L112.689 298.267C112.779 298.163 112.777 298.031 112.686 297.972L111.887 297.451C111.796 297.39 111.65 297.427 111.56 297.53L107.096 294.618C107.186 294.514 107.185 294.382 107.093 294.323L106.79 294.124L106.897 293.728C106.93 293.608 106.855 293.512 106.732 293.512L108.31 287.688C108.433 287.688 108.56 287.592 108.592 287.472L108.875 286.43C108.907 286.31 108.832 286.214 108.709 286.214L110.287 280.39C110.41 280.39 110.537 280.294 110.57 280.174L110.852 279.132C110.885 279.012 110.81 278.915 110.687 278.915L112.264 273.092C112.388 273.092 112.515 272.996 112.547 272.876L112.83 271.833C112.862 271.713 112.787 271.617 112.664 271.617L114.242 265.794C114.365 265.794 114.492 265.697 114.525 265.577L114.807 264.535C114.839 264.415 114.765 264.319 114.641 264.319L116.219 258.495C116.343 258.495 116.469 258.399 116.502 258.279L116.784 257.237C116.817 257.117 116.742 257.021 116.619 257.021L118.197 251.197C118.32 251.197 118.447 251.101 118.479 250.981L118.762 249.939C118.794 249.819 118.72 249.722 118.596 249.722L120.174 243.899C120.297 243.899 120.424 243.803 120.457 243.683L120.739 242.64C120.772 242.52 120.697 242.424 120.574 242.424L122.152 236.601C122.275 236.601 122.402 236.505 122.434 236.385L122.541 235.989L122.953 235.79C123.076 235.73 123.149 235.598 123.116 235.495L129.157 232.583C129.191 232.686 129.318 232.722 129.442 232.662L130.523 232.141C130.646 232.081 130.719 231.949 130.685 231.846L136.727 228.934C136.761 229.037 136.887 229.073 137.011 229.013L138.092 228.492C138.216 228.432 138.289 228.3 138.255 228.196L144.297 225.285C144.331 225.387 144.457 225.424 144.581 225.364L145.662 224.842C145.786 224.783 145.859 224.651 145.825 224.547L151.867 221.636C151.901 221.738 152.027 221.775 152.151 221.715L153.232 221.193C153.356 221.134 153.429 221.002 153.395 220.898L159.437 217.986C159.471 218.089 159.597 218.126 159.721 218.065L160.802 217.544C160.926 217.485 160.999 217.353 160.965 217.249L167.007 214.337C167.04 214.44 167.167 214.477 167.291 214.416L168.372 213.895C168.496 213.836 168.568 213.704 168.535 213.6L174.577 210.688C174.61 210.791 174.737 210.828 174.861 210.767L175.942 210.246C176.066 210.187 176.138 210.055 176.105 209.951L182.146 207.039Z" stroke="#7A42F4" stroke-width="0.448082" stroke-linecap="round" stroke-linejoin="round" stroke-dasharray="1.12 6.72"/>
<path d="M212.309 95.6752C212.342 95.779 212.469 95.8152 212.592 95.7562L213.017 95.5535L213.332 95.7562C213.423 95.8152 213.57 95.779 213.658 95.6752L218.232 98.6245C218.142 98.7283 218.144 98.8603 218.236 98.9193L219.053 99.4465C219.144 99.5055 219.291 99.4692 219.38 99.3654L223.953 102.315C223.863 102.418 223.866 102.55 223.957 102.61L224.774 103.137C224.866 103.196 225.012 103.16 225.101 103.056L229.674 106.005C229.585 106.109 229.587 106.241 229.679 106.3L230.496 106.827C230.587 106.886 230.734 106.85 230.822 106.746L235.396 109.695C235.306 109.799 235.308 109.931 235.4 109.99L236.217 110.517C236.309 110.576 236.455 110.54 236.544 110.436L241.117 113.385C241.027 113.489 241.03 113.621 241.121 113.68L241.938 114.207C242.03 114.267 242.176 114.23 242.265 114.126L246.839 117.076C246.749 117.18 246.751 117.312 246.843 117.371L247.66 117.898C247.751 117.957 247.898 117.92 247.986 117.817L252.56 120.766C252.47 120.87 252.472 121.002 252.564 121.061L253.381 121.588C253.473 121.647 253.619 121.611 253.708 121.507L258.281 124.456C258.192 124.56 258.194 124.692 258.285 124.751L259.103 125.278C259.194 125.337 259.341 125.301 259.429 125.197L264.003 128.146C263.913 128.25 263.915 128.382 264.007 128.441L264.824 128.968C264.915 129.028 265.062 128.991 265.151 128.887L269.724 131.837C269.634 131.941 269.637 132.073 269.728 132.132L270.545 132.659C270.637 132.718 270.783 132.682 270.872 132.578L275.445 135.527C275.356 135.631 275.358 135.763 275.45 135.822L276.267 136.349C276.358 136.408 276.505 136.372 276.593 136.268L281.167 139.217C281.077 139.321 281.079 139.453 281.171 139.512L281.988 140.039C282.08 140.098 282.226 140.062 282.315 139.958L286.888 142.907C286.798 143.011 286.801 143.143 286.892 143.202L287.709 143.73C287.801 143.789 287.947 143.752 288.036 143.648L292.61 146.598C292.52 146.702 292.522 146.833 292.614 146.893L293.431 147.42C293.522 147.479 293.669 147.442 293.758 147.338L298.331 150.288C298.241 150.392 298.243 150.524 298.335 150.583L299.152 151.11C299.244 151.169 299.39 151.132 299.479 151.029L304.052 153.978C303.963 154.082 303.965 154.214 304.056 154.273L304.874 154.8C304.965 154.859 305.112 154.823 305.2 154.719L309.774 157.668C309.684 157.772 309.686 157.904 309.778 157.964L310.595 158.49C310.686 158.55 310.833 158.513 310.922 158.409L315.495 161.359C315.405 161.462 315.408 161.594 315.499 161.654L316.316 162.18C316.408 162.24 316.554 162.203 316.643 162.099L321.216 165.049C321.127 165.153 321.129 165.285 321.22 165.344L322.038 165.871C322.129 165.93 322.276 165.894 322.364 165.791L326.938 168.739C326.848 168.843 326.85 168.975 326.942 169.034L327.759 169.561C327.851 169.62 327.997 169.585 328.086 169.481L332.659 172.429C332.569 172.533 332.572 172.665 332.663 172.724L333.48 173.252C333.572 173.31 333.718 173.275 333.807 173.171L338.381 176.119C338.291 176.223 338.293 176.355 338.385 176.415L339.202 176.942C339.293 177.001 339.44 176.965 339.528 176.861L344.102 179.81C344.012 179.913 344.015 180.045 344.106 180.105L344.418 180.306L344.302 180.732C344.27 180.851 344.345 180.948 344.468 180.948L342.793 187.13C342.67 187.13 342.543 187.226 342.51 187.346L342.212 188.448C342.179 188.568 342.254 188.664 342.377 188.664L340.703 194.845C340.579 194.845 340.452 194.942 340.42 195.061L340.121 196.164C340.089 196.283 340.164 196.379 340.287 196.379L338.612 202.561C338.489 202.561 338.362 202.658 338.329 202.777L338.031 203.88C337.998 203.999 338.073 204.096 338.196 204.096L336.521 210.277C336.398 210.277 336.271 210.374 336.239 210.494L335.94 211.595C335.908 211.715 335.982 211.812 336.106 211.812L334.431 217.993C334.308 217.993 334.18 218.09 334.148 218.209L333.849 219.312C333.817 219.431 333.892 219.528 334.015 219.528L332.34 225.709C332.217 225.709 332.09 225.806 332.058 225.925L331.759 227.028C331.727 227.147 331.801 227.244 331.924 227.244L330.249 233.425C330.126 233.425 329.999 233.521 329.967 233.641L329.668 234.743C329.636 234.863 329.711 234.959 329.834 234.959L328.159 241.141C328.036 241.141 327.909 241.238 327.876 241.357L327.578 242.46C327.545 242.579 327.62 242.676 327.743 242.676L326.068 248.857C325.945 248.857 325.818 248.954 325.786 249.074L325.487 250.175C325.455 250.294 325.529 250.392 325.653 250.392L323.978 256.573C323.854 256.573 323.728 256.669 323.695 256.789L323.397 257.891C323.364 258.011 323.439 258.107 323.562 258.107L321.887 264.289C321.764 264.289 321.637 264.386 321.605 264.505L321.306 265.608C321.274 265.727 321.348 265.824 321.471 265.824L319.796 272.005C319.673 272.005 319.546 272.102 319.514 272.222L319.215 273.323C319.183 273.443 319.258 273.54 319.381 273.54L317.706 279.721C317.583 279.721 317.456 279.818 317.423 279.937L317.125 281.039C317.092 281.159 317.167 281.255 317.29 281.255L315.615 287.437C315.492 287.437 315.365 287.534 315.333 287.653L315.034 288.756C315.002 288.875 315.076 288.972 315.199 288.972L313.525 295.153C313.401 295.153 313.275 295.249 313.242 295.369L312.943 296.471C312.911 296.591 312.986 296.687 313.109 296.687L311.434 302.869C311.311 302.869 311.184 302.966 311.152 303.085L310.853 304.188C310.82 304.307 310.895 304.404 311.018 304.404L309.344 310.584C309.22 310.584 309.093 310.682 309.061 310.801L308.762 311.903C308.73 312.022 308.804 312.12 308.928 312.12L307.253 318.301C307.13 318.301 307.003 318.397 306.97 318.517L306.672 319.619C306.639 319.739 306.714 319.835 306.837 319.835L305.162 326.017C305.039 326.017 304.912 326.114 304.88 326.233L304.581 327.336C304.549 327.455 304.623 327.552 304.746 327.552L303.072 333.733C302.948 333.733 302.821 333.83 302.789 333.95L302.49 335.051C302.458 335.17 302.533 335.268 302.656 335.268L300.981 341.449C300.858 341.449 300.731 341.545 300.698 341.665L300.4 342.767C300.367 342.887 300.442 342.983 300.565 342.983L298.891 349.164C298.767 349.164 298.64 349.262 298.608 349.381L298.493 349.807L298.072 350.008C297.948 350.067 297.874 350.199 297.908 350.303L291.736 353.251C291.704 353.148 291.577 353.112 291.454 353.17L290.351 353.698C290.227 353.758 290.153 353.889 290.187 353.993L284.015 356.942C283.983 356.838 283.856 356.802 283.733 356.861L282.63 357.388C282.506 357.448 282.432 357.58 282.466 357.683L276.294 360.632C276.262 360.528 276.135 360.492 276.011 360.552L274.909 361.078C274.785 361.138 274.711 361.27 274.745 361.374L268.573 364.323C268.54 364.219 268.414 364.183 268.29 364.242L267.187 364.769C267.064 364.828 266.99 364.96 267.023 365.064L260.852 368.013C260.819 367.91 260.693 367.873 260.569 367.932L259.466 368.459C259.343 368.518 259.269 368.65 259.302 368.754L253.131 371.704C253.098 371.6 252.972 371.563 252.848 371.623L251.745 372.149C251.622 372.209 251.548 372.34 251.581 372.444L245.41 375.394C245.377 375.29 245.251 375.253 245.127 375.313L244.024 375.839C243.901 375.899 243.827 376.031 243.86 376.134L237.689 379.084C237.656 378.98 237.53 378.943 237.406 379.003L236.303 379.529C236.18 379.589 236.106 379.721 236.139 379.825L229.968 382.774C229.935 382.67 229.808 382.634 229.685 382.693L228.582 383.22C228.458 383.279 228.385 383.411 228.418 383.515L222.246 386.464C222.214 386.361 222.087 386.324 221.964 386.383L220.861 386.91C220.737 386.969 220.664 387.101 220.697 387.205L214.525 390.155C214.493 390.051 214.366 390.014 214.243 390.074L213.14 390.6C213.016 390.66 212.943 390.791 212.976 390.895L206.804 393.845C206.772 393.741 206.645 393.704 206.522 393.764L205.419 394.29C205.295 394.35 205.221 394.482 205.255 394.585L199.083 397.535C199.051 397.431 198.924 397.394 198.801 397.454L197.698 397.982C197.574 398.04 197.5 398.172 197.534 398.276L191.362 401.225C191.33 401.121 191.203 401.085 191.079 401.144L189.976 401.672C189.853 401.73 189.779 401.862 189.813 401.966L183.641 404.915C183.609 404.812 183.482 404.775 183.358 404.834L182.255 405.362C182.132 405.42 182.058 405.552 182.092 405.656L175.92 408.606C175.888 408.502 175.761 408.465 175.637 408.525L174.534 409.052C174.411 409.111 174.337 409.242 174.371 409.346L168.199 412.296C168.167 412.192 168.04 412.155 167.916 412.215L166.813 412.742C166.69 412.801 166.616 412.933 166.65 413.037L160.478 415.986C160.446 415.882 160.319 415.847 160.195 415.905L159.092 416.433C158.969 416.491 158.895 416.623 158.928 416.727L152.757 419.676C152.724 419.572 152.597 419.537 152.474 419.595L151.371 420.123C151.248 420.181 151.174 420.313 151.207 420.418L145.036 423.366C145.003 423.263 144.876 423.227 144.753 423.285L143.65 423.813C143.527 423.871 143.453 424.004 143.486 424.108L137.315 427.057C137.282 426.953 137.155 426.917 137.032 426.976L135.929 427.503C135.806 427.562 135.732 427.695 135.765 427.798L129.594 430.747C129.561 430.643 129.434 430.607 129.311 430.666L128.208 431.193C128.084 431.253 128.01 431.385 128.044 431.489L121.873 434.437C121.84 434.333 121.713 434.298 121.59 434.356L121.165 434.559L120.85 434.356C120.759 434.298 120.612 434.333 120.524 434.437L115.95 431.489C116.04 431.385 116.038 431.253 115.946 431.193L115.129 430.666C115.037 430.607 114.891 430.643 114.802 430.747L110.229 427.798C110.319 427.695 110.316 427.562 110.225 427.503L109.408 426.976C109.316 426.917 109.17 426.953 109.081 427.057L104.507 424.108C104.597 424.004 104.595 423.871 104.503 423.813L103.686 423.285C103.595 423.227 103.448 423.263 103.36 423.366L98.786 420.418C98.8758 420.314 98.8737 420.181 98.782 420.123L97.9649 419.595C97.8732 419.537 97.7269 419.572 97.6383 419.676L93.0649 416.727C93.1547 416.623 93.1523 416.491 93.0606 416.433L92.2436 415.905C92.1518 415.847 92.0055 415.882 91.9169 415.986L87.3436 413.037C87.4333 412.933 87.4309 412.801 87.3392 412.742L86.5222 412.215C86.4307 412.155 86.2841 412.192 86.1955 412.296L81.6222 409.346C81.7119 409.242 81.7096 409.111 81.6178 409.052L80.8008 408.525C80.7094 408.465 80.5627 408.502 80.4741 408.606L75.9008 405.656C75.9905 405.552 75.9882 405.42 75.8964 405.362L75.0794 404.834C74.988 404.775 74.8413 404.812 74.7527 404.915L70.1794 401.966C70.2691 401.862 70.2668 401.73 70.1751 401.672L69.358 401.144C69.2666 401.085 69.1199 401.121 69.0313 401.225L64.458 398.276C64.5477 398.172 64.5454 398.04 64.4537 397.982L63.6366 397.454C63.5452 397.394 63.3986 397.431 63.3099 397.535L58.7366 394.585C58.8264 394.482 58.824 394.35 58.7326 394.29L57.9152 393.764C57.8238 393.704 57.6772 393.741 57.5886 393.845L53.0152 390.895C53.105 390.791 53.1026 390.66 53.0112 390.6L52.1938 390.074C52.1024 390.014 51.9558 390.051 51.8672 390.155L47.2939 387.205C47.3836 387.101 47.3812 386.969 47.2898 386.91L46.4725 386.383C46.381 386.324 46.2344 386.361 46.1458 386.464L41.5725 383.515C41.6622 383.411 41.6599 383.279 41.5684 383.22L40.7511 382.693C40.6596 382.634 40.513 382.67 40.4244 382.774L35.8511 379.825C35.9408 379.721 35.9385 379.589 35.847 379.529L35.0297 379.003C34.9383 378.943 34.7916 378.98 34.703 379.084L30.1297 376.134C30.2194 376.031 30.2171 375.899 30.1256 375.839L29.3083 375.313C29.2169 375.253 29.0702 375.29 28.9816 375.394L24.4083 372.444C24.498 372.34 24.4957 372.209 24.4043 372.149L23.5869 371.623C23.4955 371.563 23.3489 371.6 23.2603 371.704L18.6869 368.754C18.7766 368.65 18.7743 368.518 18.6829 368.459L17.8655 367.932C17.7741 367.873 17.6275 367.91 17.5389 368.013L12.966 365.064C13.0553 364.96 13.0535 364.828 12.962 364.769L12.1445 364.242C12.0531 364.183 11.9063 364.219 11.817 364.323L7.24459 361.374C7.33387 361.27 7.33208 361.138 7.24066 361.078L6.42309 360.552C6.33166 360.492 6.18521 360.528 6.09593 360.632L1.5232 357.683C1.61248 357.58 1.61069 357.448 1.51927 357.388L0.701998 356.861C0.610277 356.802 0.463824 356.838 0.374537 356.942L-4.19819 353.993C-4.1089 353.889 -4.11069 353.758 -4.20212 353.698L-5.01939 353.17C-5.11111 353.112 -5.25756 353.148 -5.34685 353.251L-9.91957 350.303C-9.83028 350.199 -9.83208 350.067 -9.92351 350.008L-10.2359 349.807L-10.1205 349.381C-10.0882 349.262 -10.1621 349.164 -10.2859 349.164L-8.61111 342.983C-8.48733 342.983 -8.361 342.887 -8.32848 342.767L-8.02997 341.665C-7.99745 341.545 -8.07163 341.449 -8.19541 341.449L-6.52062 335.268C-6.39684 335.268 -6.27021 335.17 -6.23799 335.051L-5.93947 333.95C-5.90695 333.83 -5.98114 333.733 -6.10492 333.733L-4.43012 327.552C-4.30633 327.552 -4.17972 327.455 -4.14749 327.336L-3.84868 326.233C-3.81645 326.114 -3.89035 326.017 -4.01413 326.017L-2.33933 319.835C-2.21555 319.835 -2.08921 319.739 -2.0567 319.619L-1.75819 318.517C-1.72567 318.397 -1.79985 318.301 -1.92363 318.301L-0.248831 312.12C-0.125049 312.12 0.00157072 312.022 0.0337953 311.903L0.332606 310.801C0.364831 310.682 0.290941 310.584 0.167158 310.584L1.84167 304.404C1.96545 304.404 2.09207 304.307 2.12429 304.188L2.4231 303.085C2.45533 302.966 2.38144 302.869 2.25766 302.869L3.93245 296.687C4.05624 296.687 4.18257 296.591 4.21508 296.471L4.5136 295.369C4.54612 295.249 4.47193 295.153 4.34815 295.153L6.02295 288.972C6.14673 288.972 6.27335 288.875 6.30558 288.756L6.60439 287.653C6.63661 287.534 6.56272 287.437 6.43894 287.437L8.11374 281.255C8.23752 281.255 8.36385 281.159 8.39637 281.039L8.69489 279.937C8.72711 279.818 8.65322 279.721 8.52944 279.721L10.2042 273.54C10.328 273.54 10.4543 273.443 10.4869 273.323L10.7854 272.222C10.8179 272.102 10.7437 272.005 10.6199 272.005L12.2947 265.824C12.4185 265.824 12.5451 265.727 12.5774 265.608L12.8762 264.505C12.9084 264.386 12.8345 264.289 12.7107 264.289L14.3855 258.107C14.5093 258.107 14.6356 258.011 14.6682 257.891L14.9667 256.789C14.9992 256.669 14.925 256.573 14.8012 256.573L16.476 250.392C16.5998 250.392 16.7264 250.294 16.7586 250.175L17.0572 249.074C17.0897 248.954 17.0155 248.857 16.8917 248.857L18.5665 242.676C18.6903 242.676 18.8169 242.579 18.8491 242.46L19.148 241.357C19.1802 241.238 19.1063 241.141 18.9825 241.141L20.6573 234.959C20.7811 234.959 20.9074 234.863 20.9399 234.743L21.2384 233.641C21.271 233.521 21.1968 233.425 21.073 233.425L22.7478 227.244C22.8716 227.244 22.9982 227.147 23.0304 227.028L23.3292 225.925C23.3615 225.806 23.2876 225.709 23.1638 225.709L24.8383 219.528C24.9621 219.528 25.0887 219.431 25.1209 219.312L25.4197 218.209C25.452 218.09 25.3781 217.993 25.2543 217.993L26.9291 211.812C27.0529 211.812 27.1792 211.715 27.2117 211.595L27.5102 210.494C27.5428 210.374 27.4686 210.277 27.3448 210.277L29.0196 204.096C29.1434 204.096 29.27 203.999 29.3022 203.88L29.601 202.777C29.6332 202.658 29.5594 202.561 29.4356 202.561L31.1104 196.379C31.2342 196.379 31.3605 196.283 31.393 196.163L31.6915 195.061C31.7237 194.942 31.6499 194.845 31.5261 194.845L33.2009 188.664C33.3247 188.664 33.451 188.568 33.4835 188.448L33.782 187.346C33.8145 187.226 33.7404 187.13 33.6166 187.13L35.2914 180.948C35.4151 180.948 35.5418 180.851 35.574 180.732L35.6894 180.306L36.1107 180.105C36.2344 180.045 36.3077 179.913 36.2747 179.81L42.4451 176.861C42.4782 176.965 42.6053 177.001 42.7286 176.942L43.8317 176.415C43.9555 176.355 44.0288 176.223 43.9957 176.119L50.1662 173.171C50.1992 173.275 50.3264 173.31 50.4497 173.252L51.5528 172.724C51.6766 172.665 51.7498 172.533 51.7168 172.429L57.8873 169.481C57.9203 169.585 58.0474 169.62 58.1708 169.562L59.2739 169.034C59.3976 168.975 59.4709 168.843 59.4379 168.739L65.6083 165.791C65.6414 165.894 65.7685 165.93 65.8922 165.871L66.9949 165.344C67.1187 165.285 67.192 165.153 67.1589 165.049L73.3302 162.099C73.3625 162.203 73.4892 162.24 73.6129 162.18L74.7156 161.654C74.8392 161.594 74.913 161.462 74.8795 161.359L81.0512 158.409C81.0836 158.513 81.2103 158.55 81.3339 158.49L82.4366 157.964C82.5603 157.904 82.6341 157.772 82.6006 157.668L88.7723 154.719C88.8047 154.823 88.9314 154.859 89.055 154.8L90.1577 154.273C90.2814 154.214 90.3552 154.082 90.3217 153.978L96.4934 151.029C96.5257 151.132 96.6524 151.169 96.7761 151.11L97.8788 150.583C98.0024 150.524 98.0762 150.392 98.0428 150.288L104.214 147.338C104.247 147.442 104.374 147.479 104.497 147.42L105.6 146.893C105.723 146.833 105.797 146.702 105.764 146.598L111.935 143.648C111.968 143.752 112.095 143.789 112.218 143.73L113.321 143.202C113.445 143.143 113.518 143.011 113.485 142.907L119.657 139.958C119.689 140.062 119.816 140.098 119.939 140.039L121.042 139.512C121.166 139.453 121.239 139.321 121.206 139.217L127.378 136.268C127.41 136.372 127.537 136.408 127.66 136.349L128.763 135.822C128.887 135.763 128.961 135.631 128.927 135.527L135.099 132.578C135.131 132.682 135.258 132.718 135.381 132.659L136.484 132.132C136.608 132.073 136.682 131.941 136.648 131.837L142.82 128.887C142.852 128.991 142.979 129.028 143.102 128.968L144.205 128.441C144.329 128.382 144.403 128.25 144.369 128.146L150.541 125.197C150.573 125.301 150.7 125.337 150.824 125.278L151.926 124.751C152.05 124.692 152.124 124.56 152.09 124.456L158.262 121.507C158.294 121.611 158.421 121.647 158.545 121.588L159.647 121.061C159.771 121.002 159.845 120.87 159.811 120.766L165.983 117.817C166.015 117.921 166.142 117.957 166.266 117.898L167.369 117.371C167.492 117.312 167.566 117.18 167.533 117.076L173.704 114.126C173.736 114.23 173.863 114.267 173.987 114.207L175.09 113.68C175.213 113.621 175.287 113.489 175.254 113.385L181.425 110.436C181.458 110.54 181.584 110.576 181.708 110.517L182.811 109.99C182.934 109.931 183.008 109.799 182.975 109.695L189.146 106.746C189.179 106.85 189.305 106.886 189.429 106.827L190.532 106.3C190.655 106.241 190.729 106.109 190.696 106.005L196.867 103.056C196.9 103.16 197.027 103.196 197.15 103.137L198.253 102.61C198.376 102.55 198.45 102.418 198.417 102.315L204.588 99.3654C204.621 99.4692 204.748 99.5055 204.871 99.4465L205.974 98.9193C206.098 98.8603 206.171 98.7283 206.138 98.6245L212.309 95.6752Z" stroke="#7A42F4" stroke-width="0.448082" stroke-linecap="round" stroke-linejoin="round" stroke-dasharray="1.12 6.72"/>
<path opacity="0.6" d="M-56.3896 265.057C-24.112 145.927 102.11 49.353 225.535 49.353C348.96 49.353 422.85 145.927 390.572 265.057C358.294 384.187 232.073 480.76 108.648 480.76C-14.7775 480.76 -88.6672 384.187 -56.3896 265.057Z" stroke="#7A42F4" stroke-width="1.1202"/>
<path opacity="0.6" d="M402.11 265.056C436.054 139.776 358.35 38.2163 228.552 38.2163C98.7549 38.2163 -33.9837 139.776 -67.9277 265.056C-101.872 390.337 -24.1672 491.896 105.63 491.896C235.427 491.896 368.166 390.337 402.11 265.056Z" stroke="#7A42F4" stroke-width="0.448082"/>
<path opacity="0.6" d="M225.681 48.8123L108.794 480.219" stroke="#7A42F4" stroke-width="0.448082"/>
<path opacity="0.3" d="M182.497 206.13C182.578 205.832 182.894 205.589 183.203 205.589C183.513 205.589 183.698 205.832 183.617 206.13C183.536 206.428 183.22 206.671 182.91 206.671C182.601 206.671 182.416 206.428 182.497 206.13Z" fill="#7A42F4"/>
<path opacity="0.3" d="M122.205 236.404C121.896 236.404 121.711 236.162 121.791 235.863C121.872 235.565 122.189 235.323 122.498 235.323C122.807 235.323 122.992 235.565 122.912 235.863C122.831 236.162 122.514 236.404 122.205 236.404Z" fill="#7A42F4"/>
<path opacity="0.3" d="M106.385 294.79C106.076 294.79 105.891 294.548 105.972 294.249C106.053 293.951 106.369 293.708 106.678 293.708C106.988 293.708 107.173 293.951 107.092 294.249C107.011 294.548 106.695 294.79 106.385 294.79Z" fill="#7A42F4"/>
<path opacity="0.3" d="M168.212 265.056C168.373 264.459 168.003 263.975 167.384 263.975C166.766 263.975 166.133 264.459 165.971 265.056C165.809 265.653 166.18 266.138 166.798 266.138C167.417 266.138 168.05 265.653 168.212 265.056Z" fill="#7A42F4"/>
<path opacity="0.3" d="M150.712 323.442C150.792 323.144 151.109 322.902 151.418 322.902C151.727 322.902 151.913 323.144 151.832 323.442C151.751 323.741 151.434 323.983 151.125 323.983C150.816 323.983 150.631 323.741 150.712 323.442Z" fill="#7A42F4"/>
<path opacity="0.3" d="M227.504 236.404C227.195 236.404 227.009 236.162 227.09 235.863C227.171 235.565 227.487 235.323 227.797 235.323C228.106 235.323 228.291 235.565 228.21 235.863C228.129 236.162 227.813 236.404 227.504 236.404Z" fill="#7A42F4"/>
<path opacity="0.3" d="M211.618 294.874C211.284 294.874 211.085 294.612 211.172 294.291C211.259 293.969 211.6 293.708 211.934 293.708C212.268 293.708 212.467 293.969 212.38 294.291C212.293 294.612 211.952 294.874 211.618 294.874Z" fill="#7A42F4"/>
<path opacity="0.3" d="M269.03 265.056H385.531" stroke="#7A42F4" stroke-width="1.1202"/>
<path opacity="0.3" d="M136.624 377.503L109.966 475.895" stroke="#7A42F4" stroke-width="1.1202"/>
<path opacity="0.3" d="M63.1694 344.568L-27.7627 414.142" stroke="#7A42F4" stroke-width="1.1202"/>
<path opacity="0.3" d="M227.927 344.568L281.158 414.142" stroke="#7A42F4" stroke-width="1.1202"/>
<path opacity="0.3" d="M65.1526 265.056H-51.3487" stroke="#7A42F4" stroke-width="1.1202"/>
<path opacity="0.3" d="M197.558 152.609L224.217 54.2183" stroke="#7A42F4" stroke-width="1.1202"/>
<path opacity="0.3" d="M271.013 185.545L361.945 115.971" stroke="#7A42F4" stroke-width="1.1202"/>
<path opacity="0.3" d="M106.256 185.545L53.0245 115.971" stroke="#7A42F4" stroke-width="1.1202"/>
<path opacity="0.3" d="M278.552 265.056C294.65 205.641 257.798 157.475 196.24 157.475C134.682 157.475 71.7294 205.641 55.6311 265.056C39.5327 324.472 76.385 372.638 137.943 372.638C199.501 372.638 262.453 324.472 278.552 265.056Z" stroke="#7A42F4" stroke-width="1.1202"/>
<path opacity="0.3" d="M289.753 265.057C307.47 199.669 266.914 146.663 199.169 146.663C131.425 146.663 62.1449 199.669 44.4286 265.057C26.7124 330.444 67.2683 383.45 135.013 383.45C202.757 383.45 272.037 330.444 289.753 265.057Z" stroke="#7A42F4" stroke-width="1.1202"/>
<path opacity="0.3" d="M49.8882 112.604L-56.9498 265.056L-32.7239 417.508L108.794 480.219L284.294 417.508L391.132 265.056L366.906 112.604L225.388 49.8933L49.8882 112.604Z" stroke="#7A42F4" stroke-width="1.1202"/>
</g>
</g>
</g>
<path d="M6.00001 105.587L6 240.061L-1.18255e-05 228.107L-6.9774e-06 118.536L6.00001 105.587Z" fill="#8044FF"/>
<path d="M325 36.8557L325 139.454L331 127.003L331 49.805L325 36.8557Z" fill="#8044FF"/>
<path d="M325 260.979L325 365.569L331 351.126L331 273.928L325 260.979Z" fill="#8044FF"/>
<defs>
<filter id="filter0_b_1_1000" x="-294.25" y="-309.25" width="919.5" height="1019.5" filterUnits="userSpaceOnUse" color-interpolation-filters="sRGB">
<feFlood flood-opacity="0" result="BackgroundImageFix"/>
<feGaussianBlur in="BackgroundImageFix" stdDeviation="154"/>
<feComposite in2="SourceAlpha" operator="in" result="effect1_backgroundBlur_1_1000"/>
<feBlend mode="normal" in="SourceGraphic" in2="effect1_backgroundBlur_1_1000" result="shape"/>
</filter>
<linearGradient id="paint0_linear_1_1000" x1="165.5" y1="0" x2="165.5" y2="401" gradientUnits="userSpaceOnUse">
<stop stop-color="#0E0E0E" stop-opacity="0"/>
<stop offset="1" stop-color="#0E0E0E"/>
</linearGradient>
<linearGradient id="paint1_linear_1_1000" x1="15" y1="200.5" x2="316" y2="200.5" gradientUnits="userSpaceOnUse">
<stop stop-color="#21FCFF"/>
<stop offset="1" stop-color="#FD40FF"/>
</linearGradient>
<linearGradient id="paint2_linear_1_1000" x1="201.326" y1="235.863" x2="201.326" y2="323.442" gradientUnits="userSpaceOnUse">
<stop stop-color="#9361FF"/>
<stop offset="1" stop-color="#7A42F4" stop-opacity="0.25"/>
</linearGradient>
<linearGradient id="paint3_linear_1_1000" x1="148.676" y1="235.863" x2="148.676" y2="323.442" gradientUnits="userSpaceOnUse">
<stop stop-color="#622DD6"/>
<stop offset="1" stop-color="#7A42F4" stop-opacity="0.13"/>
</linearGradient>
<clipPath id="clip0_1_1000">
<rect width="301" height="399.437" fill="white" transform="translate(15)"/>
</clipPath>
<clipPath id="clip1_1_1000">
<rect width="414.476" height="438" fill="white" transform="translate(-40.2379 38)"/>
</clipPath>
<clipPath id="clip2_1_1000">
<rect width="470.486" height="470.486" fill="white" transform="matrix(1 0 -0.261515 0.965199 -6.63177 38)"/>
</clipPath>
</defs>
</svg>
