<svg width="828" height="527" viewBox="0 0 828 527" fill="none" xmlns="http://www.w3.org/2000/svg">
<g filter="url(#filter0_d_1_244)">
<path d="M807.354 224.4C808.094 229.304 808.598 234.258 808.86 239.26L807.861 239.312C807.87 239.478 807.878 239.643 807.886 239.809C807.895 239.974 807.902 240.14 807.91 240.305L808.909 240.259C809.139 245.263 809.123 250.243 808.868 255.195L807.87 255.143C807.853 255.473 807.835 255.803 807.815 256.132L808.814 256.19C808.525 261.168 807.996 266.116 807.232 271.032L806.244 270.878C806.193 271.204 806.142 271.53 806.089 271.856L807.076 272.015C806.282 276.92 805.255 281.791 804.001 286.624L803.033 286.373L802.965 286.637C802.904 286.868 802.843 287.1 802.782 287.332L803.748 287.589C802.475 292.377 800.979 297.128 799.268 301.836L798.328 301.494C798.244 301.726 798.159 301.958 798.074 302.189L797.989 302.419L798.927 302.766C797.213 307.398 795.291 311.987 793.167 316.531L792.261 316.108C792.121 316.406 791.981 316.704 791.84 317.001L792.744 317.43C790.631 321.886 788.324 326.297 785.829 330.659L784.961 330.163C784.797 330.449 784.632 330.736 784.466 331.022L785.332 331.523C782.864 335.788 780.215 340.006 777.392 344.173L776.564 343.612C776.378 343.887 776.191 344.161 776.004 344.436L776.829 345C774.048 349.066 771.1 353.083 767.99 357.047L767.204 356.43C766.998 356.692 766.792 356.954 766.585 357.216L767.369 357.836C764.314 361.697 761.106 365.509 757.749 369.267L757.003 368.6C756.894 368.723 756.785 368.845 756.676 368.966C756.567 369.088 756.457 369.21 756.348 369.332L757.091 370.001C753.8 373.658 750.368 377.264 746.8 380.815L746.094 380.107C745.862 380.338 745.628 380.569 745.395 380.8L746.098 381.511C742.597 384.971 738.967 388.38 735.212 391.733L734.546 390.987C734.301 391.206 734.055 391.425 733.809 391.643L734.473 392.391C730.789 395.659 726.987 398.875 723.069 402.035L722.441 401.257C722.185 401.464 721.928 401.67 721.671 401.877L722.296 402.657C718.453 405.738 714.499 408.767 710.44 411.741L709.849 410.934C709.583 411.129 709.317 411.324 709.05 411.518L709.639 412.326C705.654 415.228 701.568 418.076 697.385 420.869L696.829 420.037C696.555 420.22 696.28 420.403 696.005 420.586L696.558 421.419C692.45 424.146 688.247 426.82 683.955 429.439L683.434 428.585C683.152 428.757 682.87 428.928 682.588 429.1L683.107 429.955C678.888 432.514 674.583 435.019 670.194 437.469L669.706 436.596C669.419 436.757 669.13 436.917 668.842 437.078L669.327 437.952C665.011 440.348 660.614 442.691 656.14 444.979L655.684 444.088C655.391 444.238 655.097 444.388 654.803 444.538L655.256 445.429C650.853 447.668 646.374 449.853 641.824 451.983L641.4 451.078L641.056 451.238C640.873 451.324 640.689 451.41 640.505 451.496L640.927 452.402C636.445 454.489 631.894 456.521 627.276 458.498L626.883 457.579C626.58 457.708 626.278 457.837 625.975 457.966L626.367 458.886C621.815 460.825 617.198 462.709 612.52 464.537L612.156 463.606C611.85 463.725 611.544 463.845 611.238 463.964L611.6 464.896C606.995 466.685 602.33 468.421 597.608 470.102L597.273 469.16C596.958 469.272 596.644 469.383 596.329 469.494L596.663 470.437C592.007 472.084 587.296 473.677 582.533 475.215L582.225 474.263L581.841 474.387C581.652 474.448 581.463 474.508 581.275 474.569L581.58 475.521C576.874 477.031 572.117 478.486 567.31 479.886L567.03 478.926C566.712 479.019 566.393 479.112 566.073 479.204L566.351 480.165C561.6 481.539 556.801 482.86 551.956 484.125L551.703 483.158L551.305 483.262C551.117 483.31 550.929 483.359 550.741 483.408L550.992 484.376C546.2 485.619 541.363 486.807 536.483 487.94L536.257 486.965C535.935 487.04 535.613 487.115 535.291 487.189L535.515 488.163C530.686 489.276 525.816 490.334 520.906 491.336L520.706 490.356L520.434 490.411C520.201 490.459 519.969 490.506 519.736 490.553L519.935 491.533C515.074 492.517 510.176 493.446 505.24 494.319L505.066 493.335C504.741 493.392 504.416 493.449 504.09 493.506L504.263 494.491C499.39 495.345 494.48 496.145 489.537 496.889L489.389 495.9L488.929 495.969C488.753 495.996 488.577 496.022 488.401 496.048L488.548 497.037C483.653 497.766 478.725 498.44 473.765 499.059L473.641 498.067C473.312 498.108 472.982 498.149 472.653 498.189L472.775 499.182C467.858 499.787 462.91 500.338 457.933 500.832L457.834 499.837C457.505 499.87 457.175 499.902 456.845 499.935L456.943 500.93C452.007 501.413 447.042 501.841 442.051 502.213L441.977 501.215C441.647 501.24 441.318 501.264 440.988 501.288L441.061 502.286C436.111 502.647 431.135 502.953 426.135 503.202L426.085 502.203L425.585 502.228L425.086 502.253L425.134 503.251C420.133 503.493 415.151 503.677 410.19 503.803L410.164 502.803C409.834 502.812 409.504 502.82 409.174 502.828L409.198 503.828C404.194 503.947 399.212 504.008 394.252 504.012L394.251 503.012C393.92 503.012 393.589 503.012 393.258 503.012L393.257 504.012C388.256 504.007 383.277 503.945 378.324 503.824L378.349 502.825C378.177 502.821 378.005 502.816 377.833 502.812C377.673 502.808 377.513 502.804 377.353 502.8L377.327 503.799C372.331 503.67 367.36 503.483 362.417 503.237L362.467 502.239C362.134 502.222 361.802 502.205 361.469 502.188L361.418 503.187C356.426 502.931 351.462 502.617 346.528 502.245L346.604 501.248C346.274 501.223 345.945 501.198 345.616 501.173L345.539 502.17C340.542 501.785 335.575 501.34 330.642 500.838L330.743 499.843C330.415 499.81 330.087 499.776 329.759 499.742L329.656 500.737C324.671 500.221 319.721 499.646 314.806 499.013L314.934 498.021L314.616 497.98C314.394 497.951 314.172 497.922 313.95 497.893L313.821 498.885C308.854 498.236 303.924 497.528 299.033 496.761L299.188 495.773C298.86 495.722 298.533 495.671 298.206 495.619L298.049 496.606C293.103 495.822 288.197 494.979 283.334 494.077L283.517 493.093C283.19 493.033 282.863 492.972 282.537 492.911L282.353 493.894C277.432 492.972 272.555 491.99 267.723 490.949L267.934 489.972C267.608 489.901 267.283 489.831 266.958 489.76L266.745 490.738C261.854 489.675 257.009 488.551 252.215 487.369L252.454 486.398C252.13 486.318 251.806 486.238 251.482 486.157L251.241 487.128C246.377 485.919 241.565 484.649 236.806 483.319L237.075 482.356C236.933 482.316 236.791 482.277 236.649 482.237C236.475 482.188 236.3 482.139 236.126 482.09L235.855 483.052C231.02 481.692 226.241 480.269 221.521 478.787L221.821 477.833C221.507 477.734 221.193 477.636 220.879 477.536L220.578 478.49C215.788 476.975 211.06 475.399 206.395 473.762L206.726 472.818C206.415 472.709 206.104 472.6 205.794 472.49L205.461 473.433C200.724 471.76 196.053 470.024 191.451 468.228L191.814 467.296C191.507 467.176 191.2 467.056 190.893 466.936L190.528 467.866C185.851 466.029 181.245 464.128 176.715 462.167L177.112 461.249C176.809 461.118 176.506 460.987 176.204 460.855L175.805 461.772C171.197 459.764 166.666 457.692 162.217 455.559L162.649 454.658C162.352 454.515 162.054 454.372 161.757 454.229L161.323 455.129C156.794 452.944 152.349 450.695 147.993 448.384L148.462 447.501C148.17 447.346 147.879 447.191 147.588 447.036L147.117 447.918C142.68 445.549 138.334 443.115 134.084 440.618L134.591 439.756C134.306 439.589 134.022 439.421 133.738 439.254L133.229 440.114C128.898 437.553 124.666 434.927 120.539 432.237L121.085 431.399C120.809 431.219 120.533 431.039 120.258 430.858L119.709 431.694C115.501 428.933 111.401 426.106 107.415 423.215L108.002 422.406C107.735 422.212 107.469 422.019 107.204 421.825L106.614 422.632C102.548 419.663 98.6016 416.628 94.7786 413.528L95.4085 412.751C95.1533 412.544 94.8987 412.337 94.6447 412.129L94.0121 412.904C90.1128 409.719 86.3436 406.467 82.7095 403.151L83.3836 402.412C83.1416 402.191 82.9002 401.97 82.6594 401.749L81.9825 402.485C78.2736 399.074 74.7071 395.596 71.2882 392.053L72.0079 391.358C71.7762 391.118 71.5452 390.878 71.3149 390.637L70.5924 391.328C67.1092 387.688 63.7815 383.98 60.6147 380.207L61.3807 379.564C61.1671 379.309 60.9543 379.055 60.7422 378.8L59.9733 379.439C56.755 375.569 53.7057 371.631 50.8314 367.628L51.6436 367.045C51.4507 366.776 51.2586 366.507 51.0672 366.238L50.2521 366.817C47.3406 362.721 44.6121 358.557 42.073 354.33L42.9302 353.815C42.7606 353.533 42.5918 353.25 42.4239 352.967L41.5639 353.477C39.004 349.164 36.641 344.784 34.4817 340.343L35.381 339.906C35.2374 339.611 35.0947 339.315 34.9529 339.019L34.051 339.451C31.8863 334.934 29.9319 330.353 28.1951 325.712L29.1316 325.362C29.0157 325.052 28.9008 324.742 28.7869 324.432L27.8482 324.777C26.1267 320.09 24.6267 315.343 23.3555 310.54L24.3222 310.284C24.2378 309.966 24.1545 309.646 24.0721 309.327L23.1038 309.577C21.8616 304.76 20.8493 299.887 20.0742 294.962L21.0621 294.806C21.0107 294.48 20.9605 294.154 20.9113 293.827L19.9224 293.976C19.1833 289.073 18.6791 284.119 18.417 279.117L19.4156 279.065C19.407 278.899 19.3986 278.734 19.3904 278.568C19.3823 278.403 19.3744 278.237 19.3668 278.072L18.3679 278.118C18.1382 273.114 18.1541 268.134 18.4087 263.182L19.4074 263.233C19.4243 262.904 19.4424 262.574 19.4614 262.245L18.4631 262.187C18.7514 257.209 19.2809 252.26 20.0447 247.345L21.0328 247.498C21.0835 247.173 21.1351 246.847 21.1878 246.521L20.2007 246.361C20.9947 241.457 22.0219 236.586 23.2755 231.753L24.2435 232.004C24.3264 231.684 24.4104 231.364 24.4954 231.045L23.5289 230.788C24.8023 225.999 26.2979 221.249 28.0092 216.541L28.949 216.882C29.0611 216.574 29.1742 216.266 29.2881 215.958L28.3503 215.611C30.0636 210.979 31.9858 206.389 34.1103 201.846L35.0161 202.269C35.1555 201.971 35.2957 201.673 35.4369 201.375L34.5332 200.947C36.6455 196.491 38.9525 192.08 41.4482 187.718L42.3162 188.214C42.4802 187.927 42.6451 187.641 42.8107 187.355L41.9452 186.854C44.4131 182.589 47.0615 178.371 49.8847 174.203L50.7126 174.764C50.8987 174.49 51.0855 174.215 51.2731 173.941L50.4477 173.376C53.2292 169.311 56.1772 165.294 59.2865 161.33L60.0734 161.947C60.2789 161.685 60.4852 161.423 60.6923 161.161L59.908 160.541C62.9629 156.679 66.1711 152.868 69.5276 149.11L70.2734 149.776C70.4913 149.532 70.7099 149.289 70.929 149.045L70.1857 148.376C73.4771 144.719 76.9091 141.113 80.4774 137.562L81.1829 138.27C81.4153 138.039 81.6484 137.808 81.882 137.577L81.179 136.866C84.6795 133.405 88.3095 129.997 92.0647 126.644L92.7307 127.39C92.9759 127.171 93.2216 126.952 93.4679 126.734L92.8042 125.985C96.4876 122.717 100.29 119.502 104.208 116.341L104.836 117.12C105.092 116.913 105.349 116.706 105.606 116.5L104.981 115.72C108.824 112.638 112.777 109.609 116.837 106.636L117.428 107.443C117.543 107.358 117.658 107.274 117.773 107.19C117.924 107.08 118.076 106.969 118.227 106.859L117.638 106.051C121.623 103.149 125.709 100.301 129.892 97.5079L130.447 98.3396C130.722 98.1565 130.996 97.9736 131.272 97.791L130.719 96.9579C134.827 94.2306 139.029 91.5566 143.322 88.9381L143.843 89.7918C144.124 89.62 144.406 89.4485 144.689 89.2772L144.17 88.4223C148.389 85.8632 152.694 83.3575 157.083 80.9074L157.57 81.7806C157.858 81.6199 158.147 81.4594 158.435 81.2991L157.95 80.4249C162.266 78.0284 166.663 75.6855 171.137 73.3981L171.592 74.2885C171.886 74.1385 172.18 73.9888 172.474 73.8392L172.02 72.9478C176.424 70.7088 180.902 68.5234 185.452 66.3936L185.876 67.2993C186.175 67.1597 186.473 67.0204 186.772 66.8813L186.35 65.9747C190.832 63.8883 195.383 61.8557 200 59.8787L200.394 60.798C200.696 60.6686 200.999 60.5394 201.302 60.4104L200.91 59.4903C205.462 57.5523 210.078 55.6682 214.757 53.8397L215.121 54.7711C215.426 54.6515 215.733 54.5322 216.039 54.4131L215.677 53.4811C220.282 51.6913 224.947 49.9555 229.669 48.275L230.004 49.2171C230.318 49.1053 230.633 48.9937 230.948 48.8824L230.614 47.9396C235.27 46.2928 239.98 44.6998 244.744 43.1621L245.051 44.1138C245.368 44.0116 245.685 43.9096 246.002 43.8079L245.697 42.8556C250.403 41.3462 255.16 39.8907 259.967 38.4906L260.247 39.4507C260.565 39.3578 260.884 39.2652 261.204 39.1729L260.926 38.2123C265.677 36.8375 270.476 35.5168 275.321 34.2515L275.574 35.2191C275.895 35.1354 276.215 35.0519 276.536 34.9687L276.285 34.0007C281.077 32.7582 285.914 31.57 290.794 30.4373L291.02 31.4114C291.342 31.3367 291.664 31.2622 291.986 31.1879L291.762 30.2134C296.59 29.1011 301.461 28.0432 306.371 27.0411L306.57 28.0209C306.894 27.9549 307.217 27.8892 307.54 27.8237L307.342 26.8436C312.202 25.8599 317.101 24.9308 322.037 24.0575L322.211 25.0422C322.536 24.9847 322.861 24.9275 323.187 24.8705L323.014 23.8855C327.887 23.0314 332.796 22.2317 337.74 21.4876L337.888 22.4765C338.217 22.427 338.547 22.3777 338.876 22.3286L338.729 21.3395C343.624 20.6107 348.552 19.9364 353.512 19.3179L353.636 20.3102C353.965 20.2691 354.294 20.2283 354.624 20.1877L354.502 19.1952C359.419 18.5898 364.367 18.0392 369.344 17.5445L369.443 18.5396C369.772 18.5068 370.102 18.4743 370.431 18.4421L370.334 17.4468C375.27 16.9639 380.235 16.536 385.226 16.1642L385.3 17.1615C385.63 17.1369 385.959 17.1126 386.288 17.0886L386.216 16.0913C391.166 15.7302 396.142 15.4242 401.142 15.1746L401.192 16.1733L401.692 16.1486L402.191 16.1243L402.142 15.1254C407.143 14.8834 412.126 14.6998 417.087 14.5737L417.112 15.5734C417.443 15.565 417.773 15.5569 418.103 15.549L418.079 14.5493C423.083 14.4298 428.065 14.3687 433.025 14.3652L433.026 15.3652C433.357 15.365 433.688 15.365 434.019 15.3653L434.02 14.3653C439.021 14.3695 443.999 14.4322 448.952 14.5524L448.928 15.5521C449.26 15.5601 449.592 15.5684 449.924 15.577L449.95 14.5774C454.946 14.7065 459.917 14.8942 464.86 15.1394L464.81 16.1382C465.143 16.1547 465.475 16.1714 465.808 16.1885L465.859 15.1898C470.851 15.4454 475.815 15.7598 480.749 16.1319L480.673 17.129C481.003 17.1539 481.332 17.1789 481.661 17.2043L481.737 16.2072C486.735 16.5922 491.702 17.0364 496.635 17.5387L496.534 18.5336C496.862 18.567 497.19 18.6007 497.518 18.6346L497.621 17.6399C502.606 18.1557 507.556 18.7308 512.471 19.3642L512.343 20.356C512.671 20.3983 512.999 20.4408 513.327 20.4836L513.456 19.4921C518.423 20.1407 523.353 20.8489 528.244 21.6154L528.089 22.6033C528.417 22.6547 528.744 22.7063 529.071 22.7581L529.228 21.7705C534.174 22.5544 539.079 23.398 543.943 24.3002L543.76 25.2834C544.087 25.3441 544.414 25.4049 544.74 25.4661L544.924 24.4832C549.845 25.4051 554.722 26.387 559.554 27.4276L559.343 28.4052C559.669 28.4754 559.994 28.5458 560.319 28.6164L560.532 27.6392C565.423 28.7023 570.268 29.8256 575.062 31.0079L574.823 31.9788C575.147 32.0588 575.471 32.139 575.794 32.2194L576.036 31.249C580.9 32.4582 585.712 33.7282 590.471 35.0576L590.202 36.0208C590.518 36.1092 590.835 36.1979 591.151 36.2869L591.422 35.3243C596.257 36.6852 601.036 38.1075 605.756 39.5897L605.456 40.5438C605.77 40.6424 606.084 40.7413 606.398 40.8405L606.699 39.887C611.488 41.4016 616.217 42.978 620.882 44.6149L620.551 45.5584C620.862 45.6676 621.172 45.7769 621.483 45.8866L621.816 44.9437C626.553 46.617 631.224 48.3526 635.826 50.149L635.463 51.0806C635.77 51.2005 636.077 51.3207 636.384 51.4412L636.749 50.5105C641.426 52.348 646.032 54.2484 650.562 56.21L650.165 57.1277L650.562 57.3C650.733 57.3739 650.903 57.4479 651.073 57.522L651.472 56.6052C656.08 58.6131 660.611 60.6844 665.06 62.8174L664.628 63.7191C664.925 63.8619 665.223 64.0049 665.52 64.1482L665.954 63.2476C670.483 65.4324 674.927 67.6814 679.284 69.9926L678.815 70.876C679.107 71.0307 679.398 71.1858 679.689 71.3411L680.16 70.459C684.597 72.8281 688.943 75.262 693.193 77.7587L692.686 78.6209C692.971 78.7881 693.255 78.9555 693.538 79.1233L694.047 78.2625C698.379 80.8236 702.61 83.4501 706.738 86.14L706.192 86.9778C706.468 87.1578 706.744 87.3381 707.019 87.5187L707.567 86.6826C711.776 89.4436 715.876 92.2708 719.862 95.1618L719.275 95.9713C719.541 96.1646 719.807 96.3581 720.073 96.552L720.663 95.7444C724.729 98.7134 728.675 101.749 732.498 104.849L731.868 105.626C732.124 105.833 732.378 106.04 732.632 106.248L733.265 105.473C737.164 108.658 740.933 111.91 744.567 115.226L743.893 115.965C744.002 116.064 744.11 116.163 744.218 116.262C744.352 116.384 744.485 116.506 744.618 116.628L745.294 115.892C749.003 119.303 752.57 122.781 755.989 126.324L755.269 127.019C755.501 127.259 755.732 127.499 755.962 127.74L756.684 127.048C760.168 130.689 763.495 134.397 766.662 138.17L765.896 138.813C766.11 139.067 766.323 139.322 766.535 139.577L767.304 138.938C770.522 142.808 773.571 146.746 776.445 150.748L775.633 151.332C775.826 151.6 776.018 151.869 776.21 152.139L777.025 151.559C779.936 155.656 782.665 159.82 785.204 164.047L784.347 164.562C784.415 164.675 784.483 164.789 784.551 164.902C784.652 165.071 784.753 165.241 784.853 165.41L785.713 164.9C788.273 169.213 790.636 173.592 792.795 178.033L791.896 178.471C792.039 178.766 792.182 179.062 792.324 179.358L793.226 178.926C795.391 183.443 797.345 188.024 799.082 192.665L798.145 193.015C798.261 193.325 798.376 193.635 798.49 193.945L799.429 193.6C801.15 198.287 802.65 203.034 803.921 207.837L802.955 208.092C803.039 208.411 803.122 208.73 803.205 209.05L804.173 208.8C805.415 213.617 806.428 218.49 807.203 223.415L806.215 223.571C806.266 223.897 806.316 224.223 806.366 224.549L807.354 224.4Z" stroke="white" stroke-width="2" stroke-dasharray="1 15" shape-rendering="crispEdges"/>
</g>
<defs>
<filter id="filter0_d_1_244" x="0.206055" y="0.365234" width="826.865" height="525.646" filterUnits="userSpaceOnUse" color-interpolation-filters="sRGB">
<feFlood flood-opacity="0" result="BackgroundImageFix"/>
<feColorMatrix in="SourceAlpha" type="matrix" values="0 0 0 0 0 0 0 0 0 0 0 0 0 0 0 0 0 0 127 0" result="hardAlpha"/>
<feOffset dy="4"/>
<feGaussianBlur stdDeviation="9"/>
<feComposite in2="hardAlpha" operator="out"/>
<feColorMatrix type="matrix" values="0 0 0 0 1 0 0 0 0 1 0 0 0 0 1 0 0 0 0.52 0"/>
<feBlend mode="normal" in2="BackgroundImageFix" result="effect1_dropShadow_1_244"/>
<feBlend mode="normal" in="SourceGraphic" in2="effect1_dropShadow_1_244" result="shape"/>
</filter>
</defs>
</svg>
